<?xml version="1.0" encoding="UTF-8" standalone="no"?>
<!DOCTYPE svg PUBLIC "-//W3C//DTD SVG 1.1//EN"
"http://www.w3.org/Graphics/SVG/1.1/DTD/svg11.dtd">
<svg viewBox="0 0 1100 825" version="1.1" xmlns="http://www.w3.org/2000/svg" xmlns:xlink="http://www.w3.org/1999/xlink">
<defs>
<clipPath id="c0_10"><path d="M0,825V0H1100V825Z"/></clipPath>
<clipPath id="c1_10"><path d="M0,825V0H1097.1V825Z"/></clipPath>
<clipPath id="c2_10"><path d="M930.4,134.4V0h84V134.4Z"/></clipPath>
<style type="text/css"><![CDATA[
.g0_10{
fill: #FFF;
}
.g1_10{
fill: #000;
}
.g2_10{
fill: #B01513;
}
.g3_10{
fill: #C5E8EA;
}
.g4_10{
fill: none;
stroke: #C5E8EA;
stroke-width: 2.295;
stroke-linecap: round;
stroke-miterlimit: 3;
}
.g5_10{
fill: #FF0;
}
.g6_10{
fill: none;
stroke: #FF0;
stroke-width: 2.295;
stroke-linecap: round;
stroke-miterlimit: 3;
}
.g7_10{
fill: #00B0F0;
}
.g8_10{
fill: none;
stroke: #00B0F0;
stroke-width: 2.295;
stroke-linecap: round;
stroke-miterlimit: 3;
}
.g9_10{
fill: none;
stroke: #000;
stroke-width: 2.295;
stroke-linecap: round;
stroke-miterlimit: 3;
}
.ga_10{
fill: none;
stroke: #800C0B;
stroke-width: 2.295;
stroke-linecap: round;
stroke-miterlimit: 3;
}
]]></style>
</defs>
<g clip-path="url(#c0_10)">
<path fill-rule="evenodd" d="M0,0H1100V825H0V0Z" class="g0_10"/>
<image preserveAspectRatio="none" x="0" y="0" width="1100" height="825" xlink:href="img/1.jpg"/>
</g>
<g clip-path="url(#c1_10)">
<image preserveAspectRatio="none" x="758" y="202" width="339" height="339" xlink:href="img/2.png"/>
<image preserveAspectRatio="none" x="684" y="-54" width="193" height="192" xlink:href="img/3.png"/>
<image preserveAspectRatio="none" x="758" y="733" width="119" height="120" xlink:href="img/4.png"/>
<image preserveAspectRatio="none" x="-17" y="321" width="502" height="504" xlink:href="img/5.png"/>
<image preserveAspectRatio="none" x="-100" y="348" width="283" height="285" xlink:href="img/6.png"/>
</g>
<g clip-path="url(#c2_10)" opacity="0.46">
<path fill-rule="evenodd" d="M973,133.9H931.7V1.5h82.5V133.9H973Z" class="g1_10"/>
</g>
<path fill-rule="evenodd" d="M973,132.3H931.7V0h82.5V132.3H973Z" class="g2_10"/>
<image clip-path="url(#c0_10)" preserveAspectRatio="none" x="160" y="0" width="794" height="825" xlink:href="img/7.jpg"/>
<path fill-rule="evenodd" d="M558.8,417.6h-6.5v-4.2h13v4.2h-6.5Z" class="g3_10"/>
<path d="M558.8,417.6h-6.5v-4.2h13v4.2h-6.5Z" class="g4_10"/>
<path fill-rule="evenodd" d="M566.9,424.2V413.5h4.2V435h-4.2V424.2Z" class="g5_10"/>
<path d="M566.9,424.2V413.5h4.2V435h-4.2V424.2Z" class="g6_10"/>
<path fill-rule="evenodd" d="M573.8,420.8V405.6H578v30.3h-4.2V420.8Z" class="g3_10"/>
<path d="M573.8,420.8V405.6H578v30.3h-4.2V420.8Z" class="g4_10"/>
<path fill-rule="evenodd" d="M605.3,426V406.4h4.2v39.1h-4.2V426Z" class="g3_10"/>
<path d="M605.3,426V406.4h4.2v39.1h-4.2V426Z" class="g4_10"/>
<path fill-rule="evenodd" d="M654.8,424.3V402.7h4.4v43.2h-4.4V424.3Z" class="g7_10"/>
<path d="M654.8,424.3V402.7h4.4v43.2h-4.4V424.3Z" class="g8_10"/>
<path fill-rule="evenodd" d="M560.6,616.5H538.9v-4.4h43.3v4.4H560.6Z" class="g1_10"/>
<path d="M560.6,616.5H538.9v-4.4h43.3v4.4H560.6Z" class="g9_10"/>
<path fill-rule="evenodd" d="M933.8,423.6V399.7h4.4v47.7h-4.4V423.6Z" class="g5_10"/>
<path d="M933.8,423.6V399.7h4.4v47.7h-4.4V423.6Z" class="g6_10"/>
<path fill-rule="evenodd" d="M924.5,431.2h-7.7V416.1h15.3v15.1h-7.6Z" class="g2_10"/>
<path d="M924.5,431.2h-7.7V416.1h15.3v15.1h-7.6Z" class="ga_10"/>
</svg>