<?xml version="1.0" encoding="UTF-8" standalone="no"?>
<!DOCTYPE svg PUBLIC "-//W3C//DTD SVG 1.1//EN"
"http://www.w3.org/Graphics/SVG/1.1/DTD/svg11.dtd">
<svg viewBox="0 0 1100 825" version="1.1" xmlns="http://www.w3.org/2000/svg" xmlns:xlink="http://www.w3.org/1999/xlink">
<defs>
<clipPath id="c0_5"><path d="M0,825V0H1100V825Z"/></clipPath>
<clipPath id="c1_5"><path d="M0,825V0H1097.1V825Z"/></clipPath>
<clipPath id="c2_5"><path d="M930.4,134.4V0h84V134.4Z"/></clipPath>
<style type="text/css"><![CDATA[
.g0_5{
fill: #FFF;
}
.g1_5{
fill: #000;
}
.g2_5{
fill: #B01513;
}
.g3_5{
fill: none;
stroke: #800C0B;
stroke-width: 2.295;
stroke-linecap: round;
stroke-miterlimit: 3;
}
]]></style>
</defs>
<g clip-path="url(#c0_5)">
<path fill-rule="evenodd" d="M0,0H1100V825H0V0Z" class="g0_5"/>
<image preserveAspectRatio="none" x="0" y="0" width="1100" height="825" xlink:href="img/1.jpg"/>
</g>
<g clip-path="url(#c1_5)">
<image preserveAspectRatio="none" x="758" y="202" width="339" height="339" xlink:href="img/2.png"/>
<image preserveAspectRatio="none" x="684" y="-54" width="193" height="192" xlink:href="img/3.png"/>
<image preserveAspectRatio="none" x="758" y="733" width="119" height="120" xlink:href="img/4.png"/>
<image preserveAspectRatio="none" x="-17" y="321" width="502" height="504" xlink:href="img/5.png"/>
<image preserveAspectRatio="none" x="-100" y="348" width="283" height="285" xlink:href="img/6.png"/>
</g>
<g clip-path="url(#c2_5)" opacity="0.46">
<path fill-rule="evenodd" d="M973,133.9H931.7V1.5h82.5V133.9H973Z" class="g1_5"/>
</g>
<path fill-rule="evenodd" d="M973,132.3H931.7V0h82.5V132.3H973Z" class="g2_5"/>
<image clip-path="url(#c0_5)" preserveAspectRatio="none" x="0" y="260" width="1100" height="183" xlink:href="img/7.jpg"/>
<path fill-rule="evenodd" d="M185.1,297.7h-3.3v-6.5h6.5v6.5h-3.2Z" class="g2_5"/>
<path d="M185.1,297.7h-3.3v-6.5h6.5v6.5h-3.2Z" class="g3_5"/>
<path fill-rule="evenodd" d="M185.1,355h-3.3v-6.5h6.5V355h-3.2Z" class="g2_5"/>
<path d="M185.1,355h-3.3v-6.5h6.5V355h-3.2Z" class="g3_5"/>
<path fill-rule="evenodd" d="M185.1,413.3h-3.3v-6.5h6.5v6.5h-3.2Z" class="g2_5"/>
<path d="M185.1,413.3h-3.3v-6.5h6.5v6.5h-3.2Z" class="g3_5"/>
<path fill-rule="evenodd" d="M550,411.7h-3.2v-6.5h6.4v6.5H550Z" class="g2_5"/>
<path d="M550,411.7h-3.2v-6.5h6.4v6.5H550Z" class="g3_5"/>
<path fill-rule="evenodd" d="M550,354.4h-3.2v-6.5h6.4v6.5H550Z" class="g2_5"/>
<path d="M550,354.4h-3.2v-6.5h6.4v6.5H550Z" class="g3_5"/>
<path fill-rule="evenodd" d="M550,297.7h-3.2v-6.5h6.4v6.5H550Z" class="g2_5"/>
<path d="M550,297.7h-3.2v-6.5h6.4v6.5H550Z" class="g3_5"/>
<path fill-rule="evenodd" d="M912.8,297.3h-3.2v-6.4H916v6.4h-3.2Z" class="g2_5"/>
<path d="M912.8,297.3h-3.2v-6.4H916v6.4h-3.2Z" class="g3_5"/>
<path fill-rule="evenodd" d="M912.8,354.1h-3.2v-6.5H916v6.5h-3.2Z" class="g2_5"/>
<path d="M912.8,354.1h-3.2v-6.5H916v6.5h-3.2Z" class="g3_5"/>
<path fill-rule="evenodd" d="M912.8,410.8h-3.2v-6.5H916v6.5h-3.2Z" class="g2_5"/>
<path d="M912.8,410.8h-3.2v-6.5H916v6.5h-3.2Z" class="g3_5"/>
<path fill-rule="evenodd" d="M515.6,389.9H485.3v-8.6H546v8.6H515.6Z" class="g2_5"/>
<path d="M515.6,389.9H485.3v-8.6H546v8.6H515.6Z" class="g3_5"/>
<path fill-rule="evenodd" d="M183.4,321.4H1.5V260.9H365.3v60.5H183.4Z" class="g2_5"/>
<path d="M183.4,321.4H1.5V260.9H365.3v60.5H183.4Z" class="g3_5"/>
<path fill-rule="evenodd" d="M183.9,441.3H2.1V380.8H365.7v60.5H183.9Z" class="g2_5"/>
<path d="M183.9,441.3H2.1V380.8H365.7v60.5H183.9Z" class="g3_5"/>
<path fill-rule="evenodd" d="M548.9,381.9H367V321.4H730.8v60.5H548.9Z" class="g2_5"/>
<path d="M548.9,381.9H367V321.4H730.8v60.5H548.9Z" class="g3_5"/>
<path fill-rule="evenodd" d="M914.6,324.1H732.7V263.5h363.8v60.6H914.6Z" class="g2_5"/>
<path d="M914.6,324.1H732.7V263.5h363.8v60.6H914.6Z" class="g3_5"/>
<path fill-rule="evenodd" d="M912.8,440.4H731V379.7h363.6v60.7H912.8Z" class="g2_5"/>
<path d="M912.8,440.4H731V379.7h363.6v60.7H912.8Z" class="g3_5"/>
</svg>