<?xml version="1.0" encoding="UTF-8" standalone="no"?>
<!DOCTYPE svg PUBLIC "-//W3C//DTD SVG 1.1//EN"
"http://www.w3.org/Graphics/SVG/1.1/DTD/svg11.dtd">
<svg viewBox="0 0 1100 825" version="1.1" xmlns="http://www.w3.org/2000/svg" xmlns:xlink="http://www.w3.org/1999/xlink">
<defs>
<clipPath id="c0_7"><path d="M0,825V0H1100V825Z"/></clipPath>
<clipPath id="c1_7"><path d="M0,825V0H1097.1V825Z"/></clipPath>
<clipPath id="c2_7"><path d="M930.4,134.4V0h84V134.4Z"/></clipPath>
<style type="text/css"><![CDATA[
.g0_7{
fill: #FFF;
}
.g1_7{
fill: #000;
}
.g2_7{
fill: #B01513;
}
.g3_7{
fill: #FF0;
}
.g4_7{
fill: none;
stroke: #000;
stroke-width: 0.152;
stroke-miterlimit: 10;
}
]]></style>
</defs>
<g clip-path="url(#c0_7)">
<path fill-rule="evenodd" d="M0,0H1100V825H0V0Z" class="g0_7"/>
<image preserveAspectRatio="none" x="0" y="0" width="1100" height="825" xlink:href="img/1.jpg"/>
</g>
<g clip-path="url(#c1_7)">
<image preserveAspectRatio="none" x="758" y="202" width="339" height="339" xlink:href="img/2.png"/>
<image preserveAspectRatio="none" x="684" y="-54" width="193" height="192" xlink:href="img/3.png"/>
<image preserveAspectRatio="none" x="758" y="733" width="119" height="120" xlink:href="img/4.png"/>
<image preserveAspectRatio="none" x="-17" y="321" width="502" height="504" xlink:href="img/5.png"/>
<image preserveAspectRatio="none" x="-100" y="348" width="283" height="285" xlink:href="img/6.png"/>
</g>
<g clip-path="url(#c2_7)" opacity="0.46">
<path fill-rule="evenodd" d="M973,133.9H931.7V1.5h82.5V133.9H973Z" class="g1_7"/>
</g>
<path fill-rule="evenodd" d="M973,132.3H931.7V0h82.5V132.3H973Z" class="g2_7"/>
<path fill-rule="evenodd" d="M950.6,442.4V395.2h47.1v47.2H950.6Z" class="g3_7"/>
<path d="M950.6,442.4V395.2h47.1v47.2H950.6Z" class="g4_7"/>
<path fill-rule="evenodd" d="M950.6,395.2V348.1h47.1v47.1H950.6Z" class="g3_7"/>
<path d="M950.6,395.2V348.1h47.1v47.1H950.6Z" class="g4_7"/>
<path fill-rule="evenodd" d="M950.6,348.1V300.9h47.1v47.2H950.6Z" class="g3_7"/>
<path d="M950.6,348.1V300.9h47.1v47.2H950.6Z" class="g4_7"/>
<path fill-rule="evenodd" d="M950.6,300.9V253.8h47.1v47.1H950.6Z" class="g3_7"/>
<path d="M950.6,300.9V253.8h47.1v47.1H950.6Z" class="g4_7"/>
<path fill-rule="evenodd" d="M950.6,253.8V206.6h47.1v47.2H950.6Z" class="g3_7"/>
<path d="M950.6,253.8V206.6h47.1v47.2H950.6Z" class="g4_7"/>
<path fill-rule="evenodd" d="M950.6,536.7V489.5h47.1v47.2H950.6Z" class="g3_7"/>
<path d="M950.6,536.7V489.5h47.1v47.2H950.6Z" class="g4_7"/>
<path fill-rule="evenodd" d="M950.6,489.5V442.4h47.1v47.1H950.6Z" class="g3_7"/>
<path d="M950.6,489.5V442.4h47.1v47.1H950.6Z" class="g4_7"/>
<path fill-rule="evenodd" d="M950.6,583.8V536.7h47.1v47.1H950.6Z" class="g3_7"/>
<path d="M950.6,583.8V536.7h47.1v47.1H950.6Z" class="g4_7"/>
<path fill-rule="evenodd" d="M950.6,678.1V631h47.1v47.1H950.6Z" class="g3_7"/>
<path d="M950.6,678.1V631h47.1v47.1H950.6Z" class="g4_7"/>
<path fill-rule="evenodd" d="M950.6,631V583.8h47.1V631H950.6Z" class="g3_7"/>
<path d="M950.6,631V583.8h47.1V631H950.6Z" class="g4_7"/>
</svg>