<?xml version="1.0" encoding="UTF-8" standalone="no"?>
<!DOCTYPE svg PUBLIC "-//W3C//DTD SVG 1.1//EN"
"http://www.w3.org/Graphics/SVG/1.1/DTD/svg11.dtd">
<svg viewBox="0 0 1100 825" version="1.1" xmlns="http://www.w3.org/2000/svg" xmlns:xlink="http://www.w3.org/1999/xlink">
<defs>
<clipPath id="c0_1"><path d="M0,825V0H1100V825Z"/></clipPath>
<clipPath id="c1_1"><path d="M0,825V0H1097.1V825Z"/></clipPath>
<clipPath id="c2_1"><path d="M930.4,134.4V0h84V134.4Z"/></clipPath>
<style type="text/css"><![CDATA[
.g0_1{
fill: #FFF;
}
.g1_1{
fill: #000;
}
.g2_1{
fill: #B01513;
}
.g3_1{
fill: none;
stroke: #800C0B;
stroke-width: 2.295;
stroke-linecap: round;
stroke-miterlimit: 3;
}
]]></style>
</defs>
<g clip-path="url(#c0_1)">
<path fill-rule="evenodd" d="M0,0H1100V825H0V0Z" class="g0_1"/>
<image preserveAspectRatio="none" x="0" y="0" width="1100" height="825" xlink:href="img/1.jpg"/>
</g>
<g clip-path="url(#c1_1)">
<image preserveAspectRatio="none" x="758" y="202" width="339" height="339" xlink:href="img/2.png"/>
<image preserveAspectRatio="none" x="684" y="-54" width="193" height="192" xlink:href="img/3.png"/>
<image preserveAspectRatio="none" x="758" y="733" width="119" height="120" xlink:href="img/4.png"/>
<image preserveAspectRatio="none" x="-17" y="321" width="502" height="504" xlink:href="img/5.png"/>
<image preserveAspectRatio="none" x="-100" y="348" width="283" height="285" xlink:href="img/6.png"/>
</g>
<g clip-path="url(#c2_1)" opacity="0.46">
<path fill-rule="evenodd" d="M973,133.9H931.7V1.5h82.5V133.9H973Z" class="g1_1"/>
</g>
<path fill-rule="evenodd" d="M973,132.3H931.7V0h82.5V132.3H973Z" class="g2_1"/>
<image clip-path="url(#c0_1)" preserveAspectRatio="none" x="481" y="161" width="556" height="556" xlink:href="img/7.png"/>
<path fill-rule="evenodd" d="M744.4,563.7H697.8V552.1H791v11.6H744.4Z" class="g2_1"/>
<path d="M744.4,563.7H697.8V552.1H791v11.6H744.4Z" class="g3_1"/>
</svg>