<?xml version="1.0" encoding="UTF-8" standalone="no"?>
<!DOCTYPE svg PUBLIC "-//W3C//DTD SVG 1.1//EN"
"http://www.w3.org/Graphics/SVG/1.1/DTD/svg11.dtd">
<svg viewBox="0 0 1100 825" version="1.1" xmlns="http://www.w3.org/2000/svg" xmlns:xlink="http://www.w3.org/1999/xlink">
<defs>
<clipPath id="c0_8"><path d="M0,825V0H1100V825Z"/></clipPath>
<clipPath id="c1_8"><path d="M0,825V0H1097.1V825Z"/></clipPath>
<clipPath id="c2_8"><path d="M930.4,134.4V0h84V134.4Z"/></clipPath>
<style type="text/css"><![CDATA[
.g0_8{
fill: #FFF;
}
.g1_8{
fill: #000;
}
.g2_8{
fill: #B01513;
}
.g3_8{
fill: none;
stroke: #800C0B;
stroke-width: 2.295;
stroke-linecap: round;
stroke-miterlimit: 3;
}
]]></style>
</defs>
<g clip-path="url(#c0_8)">
<path fill-rule="evenodd" d="M0,0H1100V825H0V0Z" class="g0_8"/>
<image preserveAspectRatio="none" x="0" y="0" width="1100" height="825" xlink:href="img/1.jpg"/>
</g>
<g clip-path="url(#c1_8)">
<image preserveAspectRatio="none" x="758" y="202" width="339" height="339" xlink:href="img/2.png"/>
<image preserveAspectRatio="none" x="684" y="-54" width="193" height="192" xlink:href="img/3.png"/>
<image preserveAspectRatio="none" x="758" y="733" width="119" height="120" xlink:href="img/4.png"/>
<image preserveAspectRatio="none" x="-17" y="321" width="502" height="504" xlink:href="img/5.png"/>
<image preserveAspectRatio="none" x="-100" y="348" width="283" height="285" xlink:href="img/6.png"/>
</g>
<g clip-path="url(#c2_8)" opacity="0.46">
<path fill-rule="evenodd" d="M973,133.9H931.7V1.5h82.5V133.9H973Z" class="g1_8"/>
</g>
<path fill-rule="evenodd" d="M973,132.3H931.7V0h82.5V132.3H973Z" class="g2_8"/>
<image clip-path="url(#c0_8)" preserveAspectRatio="none" x="82" y="4" width="971" height="821" xlink:href="img/7.jpg"/>
<path fill-rule="evenodd" d="M789.8,428.9h-1.1V389.6H791v39.3h-1.2Z" class="g2_8"/>
<path d="M789.8,428.9h-1.1V389.6H791v39.3h-1.2Z" class="g3_8"/>
</svg>