<?xml version="1.0" encoding="UTF-8" standalone="no"?>
<!DOCTYPE svg PUBLIC "-//W3C//DTD SVG 1.1//EN"
"http://www.w3.org/Graphics/SVG/1.1/DTD/svg11.dtd">
<svg viewBox="0 0 1100 825" version="1.1" xmlns="http://www.w3.org/2000/svg" xmlns:xlink="http://www.w3.org/1999/xlink">
<defs>
<clipPath id="c0_4"><path d="M0,825V0H1100V825Z"/></clipPath>
<clipPath id="c1_4"><path d="M0,825V0H1097.1V825Z"/></clipPath>
<clipPath id="c2_4"><path d="M930.4,134.4V0h84V134.4Z"/></clipPath>
<clipPath id="c3_4"><path d="M169.6,792.2V33.6H968.4V792.2Z"/></clipPath>
<clipPath id="c4_4"><path d="M168.8,792.2V32.8H968.4V792.2Z"/></clipPath>
<style type="text/css"><![CDATA[
.g0_4{
fill: #FFF;
}
.g1_4{
fill: #000;
}
.g2_4{
fill: #B01513;
}
.g3_4{
fill: #33C;
}
.g4_4{
fill: #FFFFC0;
}
.g5_4{
fill: #FF0;
}
.g6_4{
fill: #393;
}
.g7_4{
fill: #F00;
}
.g8_4{
fill: #C0C0C0;
}
.g9_4{
fill: #424242;
}
.ga_4{
fill: none;
stroke: #FF0;
stroke-width: 1.213;
stroke-miterlimit: 10;
}
]]></style>
</defs>
<g clip-path="url(#c0_4)">
<path fill-rule="evenodd" d="M0,0H1100V825H0V0Z" class="g0_4"/>
<image preserveAspectRatio="none" x="0" y="0" width="1100" height="825" xlink:href="img/1.jpg"/>
</g>
<g clip-path="url(#c1_4)">
<image preserveAspectRatio="none" x="758" y="202" width="339" height="339" xlink:href="img/2.png"/>
<image preserveAspectRatio="none" x="684" y="-54" width="193" height="192" xlink:href="img/3.png"/>
<image preserveAspectRatio="none" x="758" y="733" width="119" height="120" xlink:href="img/4.png"/>
<image preserveAspectRatio="none" x="-17" y="321" width="502" height="504" xlink:href="img/5.png"/>
<image preserveAspectRatio="none" x="-100" y="348" width="283" height="285" xlink:href="img/6.png"/>
</g>
<g clip-path="url(#c2_4)" opacity="0.46">
<path fill-rule="evenodd" d="M973,133.9H931.7V1.5h82.5V133.9H973Z" class="g1_4"/>
</g>
<path fill-rule="evenodd" d="M973,132.3H931.7V0h82.5V132.3H973Z" class="g2_4"/>
<path fill-rule="evenodd" d="M560.7,53.3H584V74.5H560.7V53.3Z" class="g3_4"/>
<path fill-rule="evenodd" d="M583.3,53.3h46V74.5h-46V53.3Z" class="g3_4"/>
<path fill-rule="evenodd" d="M492.9,73.8h68.6V95.1H492.9V73.8Z" class="g4_4"/>
<path fill-rule="evenodd" d="M560.7,73.8h91.2V95.1H560.7V73.8Z" class="g3_4"/>
<path fill-rule="evenodd" d="M470.3,94.3h68.5v21.2H470.3V94.3Z" class="g4_4"/>
<path fill-rule="evenodd" d="M538.1,94.3H584v21.2H538.1V94.3Z" class="g5_4"/>
<path fill-rule="evenodd" d="M583.3,94.3h23.4v21.2H583.3V94.3Z" class="g3_4"/>
<path fill-rule="evenodd" d="M605.9,94.3h46v21.2h-46V94.3Z" class="g5_4"/>
<path fill-rule="evenodd" d="M651.2,94.3h23.3v21.2H651.2V94.3Z" class="g6_4"/>
<path fill-rule="evenodd" d="M447.7,114.9H471V136H447.7V114.9Z" class="g6_4"/>
<path fill-rule="evenodd" d="M470.3,114.9h23.3V136H470.3V114.9Z" class="g4_4"/>
<path fill-rule="evenodd" d="M492.9,114.9h45.9V136H492.9V114.9Z" class="g6_4"/>
<path fill-rule="evenodd" d="M538.1,114.9h23.4V136H538.1V114.9Z" class="g6_4"/>
<path fill-rule="evenodd" d="M560.7,114.9H584V136H560.7V114.9Z" class="g5_4"/>
<path fill-rule="evenodd" d="M583.3,114.9h23.4V136H583.3V114.9Z" class="g3_4"/>
<path fill-rule="evenodd" d="M605.9,114.9h23.4V136H605.9V114.9Z" class="g5_4"/>
<path fill-rule="evenodd" d="M628.6,114.9h68.5V136H628.6V114.9Z" class="g6_4"/>
<path fill-rule="evenodd" d="M425.1,135.3h23.3v21.3H425.1V135.3Z" class="g6_4"/>
<path fill-rule="evenodd" d="M447.7,135.3h68.5v21.3H447.7V135.3Z" class="g6_4"/>
<path fill-rule="evenodd" d="M515.5,135.3h45.9v21.3H515.5V135.3Z" class="g6_4"/>
<path fill-rule="evenodd" d="M560.7,135.3h68.6v21.3H560.7V135.3Z" class="g5_4"/>
<path fill-rule="evenodd" d="M628.6,135.3h23.3v21.3H628.6V135.3Z" class="g6_4"/>
<path fill-rule="evenodd" d="M651.2,135.3h45.9v21.3H651.2V135.3Z" class="g3_4"/>
<path fill-rule="evenodd" d="M696.4,135.3h23.3v21.3H696.4V135.3Z" class="g3_4"/>
<path fill-rule="evenodd" d="M402.5,155.9h91.1V177H402.5V155.9Z" class="g3_4"/>
<path fill-rule="evenodd" d="M492.9,155.9h23.3V177H492.9V155.9Z" class="g6_4"/>
<path fill-rule="evenodd" d="M515.5,155.9h23.3V177H515.5V155.9Z" class="g6_4"/>
<path fill-rule="evenodd" d="M538.1,155.9h68.6V177H538.1V155.9Z" class="g5_4"/>
<path fill-rule="evenodd" d="M605.9,155.9h46V177h-46V155.9Z" class="g6_4"/>
<path fill-rule="evenodd" d="M651.2,155.9h23.3V177H651.2V155.9Z" class="g3_4"/>
<path fill-rule="evenodd" d="M673.8,155.9h68.5V177H673.8V155.9Z" class="g3_4"/>
<path fill-rule="evenodd" d="M379.8,176.3h23.4v21.3H379.8V176.3Z" class="g7_4"/>
<path fill-rule="evenodd" d="M402.5,176.3h23.3v21.3H402.5V176.3Z" class="g7_4"/>
<path fill-rule="evenodd" d="M425.1,176.3h23.3v21.3H425.1V176.3Z" class="g7_4"/>
<path fill-rule="evenodd" d="M447.7,176.3H471v21.3H447.7V176.3Z" class="g7_4"/>
<path fill-rule="evenodd" d="M470.3,176.3h23.3v21.3H470.3V176.3Z" class="g5_4"/>
<path fill-rule="evenodd" d="M492.9,176.3h45.9v21.3H492.9V176.3Z" class="g5_4"/>
<path fill-rule="evenodd" d="M538.1,176.3h23.4v21.3H538.1V176.3Z" class="g5_4"/>
<path fill-rule="evenodd" d="M560.7,176.3H584v21.3H560.7V176.3Z" class="g3_4"/>
<path fill-rule="evenodd" d="M583.3,176.3h23.4v21.3H583.3V176.3Z" class="g5_4"/>
<path fill-rule="evenodd" d="M605.9,176.3h68.6v21.3H605.9V176.3Z" class="g3_4"/>
<path fill-rule="evenodd" d="M673.8,176.3h23.3v21.3H673.8V176.3Z" class="g3_4"/>
<path fill-rule="evenodd" d="M696.4,176.3h23.3v21.3H696.4V176.3Z" class="g6_4"/>
<path fill-rule="evenodd" d="M719,176.3h45.9v21.3H719V176.3Z" class="g6_4"/>
<path fill-rule="evenodd" d="M358.7,196.9h89.7v21.2H358.7V196.9Z" class="g7_4"/>
<path fill-rule="evenodd" d="M447.7,196.9h45.9v21.2H447.7V196.9Z" class="g5_4"/>
<path fill-rule="evenodd" d="M492.9,196.9h23.3v21.2H492.9V196.9Z" class="g5_4"/>
<path fill-rule="evenodd" d="M515.5,196.9H584v21.2H515.5V196.9Z" class="g3_4"/>
<path fill-rule="evenodd" d="M583.3,196.9h68.6v21.2H583.3V196.9Z" class="g3_4"/>
<path fill-rule="evenodd" d="M651.2,196.9h23.3v21.2H651.2V196.9Z" class="g3_4"/>
<path fill-rule="evenodd" d="M673.8,196.9h91.1v21.2H673.8V196.9Z" class="g6_4"/>
<path fill-rule="evenodd" d="M764.2,196.9h23.3v21.2H764.2V196.9Z" class="g6_4"/>
<path fill-rule="evenodd" d="M337.6,217.4h88.2v21.2H337.6V217.4Z" class="g5_4"/>
<path fill-rule="evenodd" d="M425.1,217.4h23.3v21.2H425.1V217.4Z" class="g7_4"/>
<path fill-rule="evenodd" d="M447.7,217.4H471v21.2H447.7V217.4Z" class="g5_4"/>
<path fill-rule="evenodd" d="M470.3,217.4h45.9v21.2H470.3V217.4Z" class="g3_4"/>
<path fill-rule="evenodd" d="M515.5,217.4h23.3v21.2H515.5V217.4Z" class="g7_4"/>
<path fill-rule="evenodd" d="M538.1,217.4h91.2v21.2H538.1V217.4Z" class="g3_4"/>
<path fill-rule="evenodd" d="M628.6,217.4h23.3v21.2H628.6V217.4Z" class="g3_4"/>
<path fill-rule="evenodd" d="M651.2,217.4h45.9v21.2H651.2V217.4Z" class="g6_4"/>
<path fill-rule="evenodd" d="M696.4,217.4h45.9v21.2H696.4V217.4Z" class="g3_4"/>
<path fill-rule="evenodd" d="M741.6,217.4h68.5v21.2H741.6V217.4Z" class="g3_4"/>
<path fill-rule="evenodd" d="M316.5,237.8h42.9v21.3H316.5V237.8Z" class="g5_4"/>
<path fill-rule="evenodd" d="M358.7,237.8h21.8v21.3H358.7V237.8Z" class="g3_4"/>
<path fill-rule="evenodd" d="M379.8,237.8h23.4v21.3H379.8V237.8Z" class="g6_4"/>
<path fill-rule="evenodd" d="M402.5,237.8H471v21.3H402.5V237.8Z" class="g5_4"/>
<path fill-rule="evenodd" d="M470.3,237.8h23.3v21.3H470.3V237.8Z" class="g3_4"/>
<path fill-rule="evenodd" d="M492.9,237.8h45.9v21.3H492.9V237.8Z" class="g7_4"/>
<path fill-rule="evenodd" d="M538.1,237.8h68.6v21.3H538.1V237.8Z" class="g3_4"/>
<path fill-rule="evenodd" d="M605.9,237.8h23.4v21.3H605.9V237.8Z" class="g4_4"/>
<path fill-rule="evenodd" d="M628.6,237.8h68.5v21.3H628.6V237.8Z" class="g4_4"/>
<path fill-rule="evenodd" d="M696.4,237.8h23.3v21.3H696.4V237.8Z" class="g3_4"/>
<path fill-rule="evenodd" d="M719,237.8h68.5v21.3H719V237.8Z" class="g3_4"/>
<path fill-rule="evenodd" d="M786.8,237.8h46v21.3h-46V237.8Z" class="g3_4"/>
<path fill-rule="evenodd" d="M295.4,258.4h21.9v21.1H295.4V258.4Z" class="g6_4"/>
<path fill-rule="evenodd" d="M316.5,258.4h21.9v21.1H316.5V258.4Z" class="g5_4"/>
<path fill-rule="evenodd" d="M337.6,258.4h21.8v21.1H337.6V258.4Z" class="g6_4"/>
<path fill-rule="evenodd" d="M358.7,258.4h21.8v21.1H358.7V258.4Z" class="g3_4"/>
<path fill-rule="evenodd" d="M379.8,258.4h46v21.1h-46V258.4Z" class="g6_4"/>
<path fill-rule="evenodd" d="M425.1,258.4h91.1v21.1H425.1V258.4Z" class="g3_4"/>
<path fill-rule="evenodd" d="M515.5,258.4h23.3v21.1H515.5V258.4Z" class="g7_4"/>
<path fill-rule="evenodd" d="M538.1,258.4h68.6v21.1H538.1V258.4Z" class="g3_4"/>
<path fill-rule="evenodd" d="M605.9,258.4h68.6v21.1H605.9V258.4Z" class="g4_4"/>
<path fill-rule="evenodd" d="M673.8,258.4h91.1v21.1H673.8V258.4Z" class="g3_4"/>
<path fill-rule="evenodd" d="M764.2,258.4h23.3v21.1H764.2V258.4Z" class="g3_4"/>
<path fill-rule="evenodd" d="M786.8,258.4h23.3v21.1H786.8V258.4Z" class="g8_4"/>
<path fill-rule="evenodd" d="M809.4,258.4h23.4v21.1H809.4V258.4Z" class="g8_4"/>
<path fill-rule="evenodd" d="M832,258.4h23.4v21.1H832V258.4Z" class="g8_4"/>
<path fill-rule="evenodd" d="M274.3,278.9h85.1v21.2H274.3V278.9Z" class="g6_4"/>
<path fill-rule="evenodd" d="M358.7,278.9h44.5v21.2H358.7V278.9Z" class="g3_4"/>
<path fill-rule="evenodd" d="M402.5,278.9H471v21.2H402.5V278.9Z" class="g6_4"/>
<path fill-rule="evenodd" d="M470.3,278.9h23.3v21.2H470.3V278.9Z" class="g6_4"/>
<path fill-rule="evenodd" d="M492.9,278.9h45.9v21.2H492.9V278.9Z" class="g7_4"/>
<path fill-rule="evenodd" d="M538.1,278.9h23.4v21.2H538.1V278.9Z" class="g7_4"/>
<path fill-rule="evenodd" d="M560.7,278.9h68.6v21.2H560.7V278.9Z" class="g3_4"/>
<path fill-rule="evenodd" d="M628.6,278.9h45.9v21.2H628.6V278.9Z" class="g4_4"/>
<path fill-rule="evenodd" d="M673.8,278.9h23.3v21.2H673.8V278.9Z" class="g4_4"/>
<path fill-rule="evenodd" d="M696.4,278.9h23.3v21.2H696.4V278.9Z" class="g3_4"/>
<path fill-rule="evenodd" d="M719,278.9h68.5v21.2H719V278.9Z" class="g3_4"/>
<path fill-rule="evenodd" d="M786.8,278.9h46v21.2h-46V278.9Z" class="g8_4"/>
<path fill-rule="evenodd" d="M832,278.9h46v21.2H832V278.9Z" class="g8_4"/>
<path fill-rule="evenodd" d="M253.2,299.4H275v21.2H253.2V299.4Z" class="g8_4"/>
<path fill-rule="evenodd" d="M274.3,299.4h21.8v21.2H274.3V299.4Z" class="g6_4"/>
<path fill-rule="evenodd" d="M295.4,299.4h21.9v21.2H295.4V299.4Z" class="g6_4"/>
<path fill-rule="evenodd" d="M316.5,299.4h64v21.2h-64V299.4Z" class="g3_4"/>
<path fill-rule="evenodd" d="M379.8,299.4h23.4v21.2H379.8V299.4Z" class="g3_4"/>
<path fill-rule="evenodd" d="M402.5,299.4h23.3v21.2H402.5V299.4Z" class="g6_4"/>
<path fill-rule="evenodd" d="M425.1,299.4h91.1v21.2H425.1V299.4Z" class="g6_4"/>
<path fill-rule="evenodd" d="M515.5,299.4h23.3v21.2H515.5V299.4Z" class="g7_4"/>
<path fill-rule="evenodd" d="M538.1,299.4h23.4v21.2H538.1V299.4Z" class="g7_4"/>
<path fill-rule="evenodd" d="M560.7,299.4h91.2v21.2H560.7V299.4Z" class="g3_4"/>
<path fill-rule="evenodd" d="M651.2,299.4h23.3v21.2H651.2V299.4Z" class="g4_4"/>
<path fill-rule="evenodd" d="M673.8,299.4h23.3v21.2H673.8V299.4Z" class="g4_4"/>
<path fill-rule="evenodd" d="M696.4,299.4h68.5v21.2H696.4V299.4Z" class="g3_4"/>
<path fill-rule="evenodd" d="M764.2,299.4h91.2v21.2H764.2V299.4Z" class="g8_4"/>
<path fill-rule="evenodd" d="M854.7,299.4h45.9v21.2H854.7V299.4Z" class="g8_4"/>
<path fill-rule="evenodd" d="M232.1,319.9h85.2v21.2H232.1V319.9Z" class="g8_4"/>
<path fill-rule="evenodd" d="M316.5,319.9h64v21.2h-64V319.9Z" class="g6_4"/>
<path fill-rule="evenodd" d="M379.8,319.9h23.4v21.2H379.8V319.9Z" class="g6_4"/>
<path fill-rule="evenodd" d="M402.5,319.9H516.2v21.2H402.5V319.9Z" class="g6_4"/>
<path fill-rule="evenodd" d="M515.5,319.9H584v21.2H515.5V319.9Z" class="g6_4"/>
<path fill-rule="evenodd" d="M583.3,319.9h46v21.2h-46V319.9Z" class="g6_4"/>
<path fill-rule="evenodd" d="M628.6,319.9h23.3v21.2H628.6V319.9Z" class="g6_4"/>
<path fill-rule="evenodd" d="M651.2,319.9h68.5v21.2H651.2V319.9Z" class="g6_4"/>
<path fill-rule="evenodd" d="M719,319.9h23.3v21.2H719V319.9Z" class="g3_4"/>
<path fill-rule="evenodd" d="M741.6,319.9h23.3v21.2H741.6V319.9Z" class="g3_4"/>
<path fill-rule="evenodd" d="M764.2,319.9h45.9v21.2H764.2V319.9Z" class="g3_4"/>
<path fill-rule="evenodd" d="M809.4,319.9h46v21.2h-46V319.9Z" class="g3_4"/>
<path fill-rule="evenodd" d="M854.7,319.9H878v21.2H854.7V319.9Z" class="g5_4"/>
<path fill-rule="evenodd" d="M877.2,319.9h46v21.2h-46V319.9Z" class="g5_4"/>
<path fill-rule="evenodd" d="M211,340.4h43v21.2H211V340.4Z" class="g4_4"/>
<path fill-rule="evenodd" d="M253.2,340.4H275v21.2H253.2V340.4Z" class="g4_4"/>
<path fill-rule="evenodd" d="M274.3,340.4h64.1v21.2H274.3V340.4Z" class="g6_4"/>
<path fill-rule="evenodd" d="M337.6,340.4h42.9v21.2H337.6V340.4Z" class="g6_4"/>
<path fill-rule="evenodd" d="M379.8,340.4h23.4v21.2H379.8V340.4Z" class="g6_4"/>
<path fill-rule="evenodd" d="M402.5,340.4h45.9v21.2H402.5V340.4Z" class="g6_4"/>
<path fill-rule="evenodd" d="M447.7,340.4H471v21.2H447.7V340.4Z" class="g7_4"/>
<path fill-rule="evenodd" d="M470.3,340.4h23.3v21.2H470.3V340.4Z" class="g6_4"/>
<path fill-rule="evenodd" d="M492.9,340.4h23.3v21.2H492.9V340.4Z" class="g6_4"/>
<path fill-rule="evenodd" d="M515.5,340.4h23.3v21.2H515.5V340.4Z" class="g6_4"/>
<path fill-rule="evenodd" d="M538.1,340.4h23.4v21.2H538.1V340.4Z" class="g6_4"/>
<path fill-rule="evenodd" d="M560.7,340.4h68.6v21.2H560.7V340.4Z" class="g6_4"/>
<path fill-rule="evenodd" d="M628.6,340.4h23.3v21.2H628.6V340.4Z" class="g6_4"/>
<path fill-rule="evenodd" d="M651.2,340.4h45.9v21.2H651.2V340.4Z" class="g6_4"/>
<path fill-rule="evenodd" d="M696.4,340.4h23.3v21.2H696.4V340.4Z" class="g6_4"/>
<path fill-rule="evenodd" d="M719,340.4h23.3v21.2H719V340.4Z" class="g3_4"/>
<path fill-rule="evenodd" d="M741.6,340.4h23.3v21.2H741.6V340.4Z" class="g3_4"/>
<path fill-rule="evenodd" d="M764.2,340.4h45.9v21.2H764.2V340.4Z" class="g3_4"/>
<path fill-rule="evenodd" d="M809.4,340.4h46v21.2h-46V340.4Z" class="g3_4"/>
<path fill-rule="evenodd" d="M854.7,340.4h68.5v21.2H854.7V340.4Z" class="g5_4"/>
<path fill-rule="evenodd" d="M922.5,340.4h23.3v21.2H922.5V340.4Z" class="g5_4"/>
<path fill-rule="evenodd" d="M189.9,360.9H296.1v21.2H189.9V360.9Z" class="g4_4"/>
<path fill-rule="evenodd" d="M295.4,360.9h21.9v21.2H295.4V360.9Z" class="g6_4"/>
<path fill-rule="evenodd" d="M316.5,360.9h42.9v21.2H316.5V360.9Z" class="g6_4"/>
<path fill-rule="evenodd" d="M358.7,360.9h67.1v21.2H358.7V360.9Z" class="g6_4"/>
<path fill-rule="evenodd" d="M425.1,360.9h23.3v21.2H425.1V360.9Z" class="g6_4"/>
<path fill-rule="evenodd" d="M447.7,360.9H471v21.2H447.7V360.9Z" class="g7_4"/>
<path fill-rule="evenodd" d="M470.3,360.9h68.5v21.2H470.3V360.9Z" class="g6_4"/>
<path fill-rule="evenodd" d="M538.1,360.9h23.4v21.2H538.1V360.9Z" class="g6_4"/>
<path fill-rule="evenodd" d="M560.7,360.9h45.9v21.2H560.7V360.9Z" class="g6_4"/>
<path fill-rule="evenodd" d="M605.9,360.9h23.4v21.2H605.9V360.9Z" class="g6_4"/>
<path fill-rule="evenodd" d="M628.6,360.9h68.5v21.2H628.6V360.9Z" class="g6_4"/>
<path fill-rule="evenodd" d="M696.4,360.9h23.3v21.2H696.4V360.9Z" class="g6_4"/>
<path fill-rule="evenodd" d="M719,360.9h23.3v21.2H719V360.9Z" class="g3_4"/>
<path fill-rule="evenodd" d="M741.6,360.9h45.9v21.2H741.6V360.9Z" class="g3_4"/>
<path fill-rule="evenodd" d="M786.8,360.9h23.3v21.2H786.8V360.9Z" class="g3_4"/>
<path fill-rule="evenodd" d="M809.4,360.9h46v21.2h-46V360.9Z" class="g3_4"/>
<path fill-rule="evenodd" d="M854.7,360.9H878v21.2H854.7V360.9Z" class="g3_4"/>
<path fill-rule="evenodd" d="M877.2,360.9h23.4v21.2H877.2V360.9Z" class="g3_4"/>
<path fill-rule="evenodd" d="M899.9,360.9h23.3v21.2H899.9V360.9Z" class="g5_4"/>
<path fill-rule="evenodd" d="M922.5,360.9h45.9v21.2H922.5V360.9Z" class="g5_4"/>
<path clip-path="url(#c3_4)" fill-rule="evenodd" d="M168.8,381.4h21.8v21.2H168.8V381.4Z" class="g6_4"/>
<path fill-rule="evenodd" d="M189.9,381.4H254v21.2H189.9V381.4Z" class="g6_4"/>
<path fill-rule="evenodd" d="M253.2,381.4h64.1v21.2H253.2V381.4Z" class="g4_4"/>
<path fill-rule="evenodd" d="M316.5,381.4h21.9v21.2H316.5V381.4Z" class="g4_4"/>
<path fill-rule="evenodd" d="M337.6,381.4h21.8v21.2H337.6V381.4Z" class="g4_4"/>
<path fill-rule="evenodd" d="M358.7,381.4h21.8v21.2H358.7V381.4Z" class="g3_4"/>
<path fill-rule="evenodd" d="M379.8,381.4h23.4v21.2H379.8V381.4Z" class="g3_4"/>
<path fill-rule="evenodd" d="M402.5,381.4h23.3v21.2H402.5V381.4Z" class="g3_4"/>
<path fill-rule="evenodd" d="M425.1,381.4h91.1v21.2H425.1V381.4Z" class="g7_4"/>
<path fill-rule="evenodd" d="M515.5,381.4h45.9v21.2H515.5V381.4Z" class="g6_4"/>
<path fill-rule="evenodd" d="M560.7,381.4h45.9v21.2H560.7V381.4Z" class="g5_4"/>
<path fill-rule="evenodd" d="M605.9,381.4h23.4v21.2H605.9V381.4Z" class="g5_4"/>
<path fill-rule="evenodd" d="M628.6,381.4h23.3v21.2H628.6V381.4Z" class="g5_4"/>
<path fill-rule="evenodd" d="M651.2,381.4h68.5v21.2H651.2V381.4Z" class="g5_4"/>
<path fill-rule="evenodd" d="M719,381.4h68.5v21.2H719V381.4Z" class="g5_4"/>
<path fill-rule="evenodd" d="M786.8,381.4h23.3v21.2H786.8V381.4Z" class="g5_4"/>
<path fill-rule="evenodd" d="M809.4,381.4h23.4v21.2H809.4V381.4Z" class="g5_4"/>
<path fill-rule="evenodd" d="M832,381.4h23.4v21.2H832V381.4Z" class="g5_4"/>
<path fill-rule="evenodd" d="M854.7,381.4H878v21.2H854.7V381.4Z" class="g5_4"/>
<path fill-rule="evenodd" d="M877.2,381.4h23.4v21.2H877.2V381.4Z" class="g5_4"/>
<path fill-rule="evenodd" d="M899.9,381.4h45.9v21.2H899.9V381.4Z" class="g5_4"/>
<g clip-path="url(#c3_4)">
<path fill-rule="evenodd" d="M945.1,381.4H991v21.2H945.1V381.4Z" class="g5_4"/>
<path fill-rule="evenodd" d="M168.8,401.9h21.8v21.2H168.8V401.9Z" class="g6_4"/>
</g>
<path fill-rule="evenodd" d="M189.9,401.9h21.8v21.2H189.9V401.9Z" class="g6_4"/>
<path fill-rule="evenodd" d="M211,401.9h21.9v21.2H211V401.9Z" class="g6_4"/>
<path fill-rule="evenodd" d="M232.1,401.9H254v21.2H232.1V401.9Z" class="g6_4"/>
<path fill-rule="evenodd" d="M253.2,401.9h42.9v21.2H253.2V401.9Z" class="g4_4"/>
<path fill-rule="evenodd" d="M295.4,401.9h43v21.2h-43V401.9Z" class="g4_4"/>
<path fill-rule="evenodd" d="M337.6,401.9h21.8v21.2H337.6V401.9Z" class="g4_4"/>
<path fill-rule="evenodd" d="M358.7,401.9H471v21.2H358.7V401.9Z" class="g3_4"/>
<path fill-rule="evenodd" d="M470.3,401.9h23.3v21.2H470.3V401.9Z" class="g7_4"/>
<path fill-rule="evenodd" d="M492.9,401.9h45.9v21.2H492.9V401.9Z" class="g4_4"/>
<path fill-rule="evenodd" d="M538.1,401.9h23.4v21.2H538.1V401.9Z" class="g5_4"/>
<path fill-rule="evenodd" d="M560.7,401.9H584v21.2H560.7V401.9Z" class="g9_4"/>
<path fill-rule="evenodd" d="M583.3,401.9h23.4v21.2H583.3V401.9Z" class="g5_4"/>
<path fill-rule="evenodd" d="M605.9,401.9h23.4v21.2H605.9V401.9Z" class="g5_4"/>
<path fill-rule="evenodd" d="M628.6,401.9h23.3v21.2H628.6V401.9Z" class="g5_4"/>
<path fill-rule="evenodd" d="M651.2,401.9h91.1v21.2H651.2V401.9Z" class="g5_4"/>
<path fill-rule="evenodd" d="M741.6,401.9h68.5v21.2H741.6V401.9Z" class="g5_4"/>
<path fill-rule="evenodd" d="M809.4,401.9h46v21.2h-46V401.9Z" class="g5_4"/>
<path fill-rule="evenodd" d="M854.7,401.9H878v21.2H854.7V401.9Z" class="g5_4"/>
<path fill-rule="evenodd" d="M877.2,401.9h46v21.2h-46V401.9Z" class="g5_4"/>
<g clip-path="url(#c3_4)">
<path fill-rule="evenodd" d="M922.5,401.9H991v21.2H922.5V401.9Z" class="g5_4"/>
<path fill-rule="evenodd" d="M168.8,422.4h64.1v21.2H168.8V422.4Z" class="g6_4"/>
</g>
<path fill-rule="evenodd" d="M232.1,422.4H254v21.2H232.1V422.4Z" class="g6_4"/>
<path fill-rule="evenodd" d="M253.2,422.4h42.9v21.2H253.2V422.4Z" class="g4_4"/>
<path fill-rule="evenodd" d="M295.4,422.4h21.9v21.2H295.4V422.4Z" class="g6_4"/>
<path fill-rule="evenodd" d="M316.5,422.4H425.8v21.2H316.5V422.4Z" class="g6_4"/>
<path fill-rule="evenodd" d="M425.1,422.4H471v21.2H425.1V422.4Z" class="g6_4"/>
<path fill-rule="evenodd" d="M470.3,422.4h68.5v21.2H470.3V422.4Z" class="g4_4"/>
<path fill-rule="evenodd" d="M538.1,422.4h68.6v21.2H538.1V422.4Z" class="g5_4"/>
<path fill-rule="evenodd" d="M605.9,422.4h91.2v21.2H605.9V422.4Z" class="g5_4"/>
<path fill-rule="evenodd" d="M696.4,422.4h23.3v21.2H696.4V422.4Z" class="g5_4"/>
<path fill-rule="evenodd" d="M719,422.4h68.5v21.2H719V422.4Z" class="g5_4"/>
<path fill-rule="evenodd" d="M786.8,422.4h68.6v21.2H786.8V422.4Z" class="g5_4"/>
<path fill-rule="evenodd" d="M854.7,422.4H878v21.2H854.7V422.4Z" class="g5_4"/>
<path fill-rule="evenodd" d="M877.2,422.4h68.6v21.2H877.2V422.4Z" class="g5_4"/>
<path clip-path="url(#c3_4)" fill-rule="evenodd" d="M945.1,422.4H991v21.2H945.1V422.4Z" class="g5_4"/>
<path fill-rule="evenodd" d="M189.9,442.9h21.8v21.2H189.9V442.9Z" class="g6_4"/>
<path fill-rule="evenodd" d="M211,442.9h21.9v21.2H211V442.9Z" class="g4_4"/>
<path fill-rule="evenodd" d="M232.1,442.9H254v21.2H232.1V442.9Z" class="g4_4"/>
<path fill-rule="evenodd" d="M253.2,442.9H275v21.2H253.2V442.9Z" class="g4_4"/>
<path fill-rule="evenodd" d="M274.3,442.9h21.8v21.2H274.3V442.9Z" class="g7_4"/>
<path fill-rule="evenodd" d="M295.4,442.9h43v21.2h-43V442.9Z" class="g6_4"/>
<path fill-rule="evenodd" d="M337.6,442.9h21.8v21.2H337.6V442.9Z" class="g6_4"/>
<path fill-rule="evenodd" d="M358.7,442.9h89.7v21.2H358.7V442.9Z" class="g6_4"/>
<path fill-rule="evenodd" d="M447.7,442.9h68.5v21.2H447.7V442.9Z" class="g7_4"/>
<path fill-rule="evenodd" d="M515.5,442.9h45.9v21.2H515.5V442.9Z" class="g4_4"/>
<path fill-rule="evenodd" d="M560.7,442.9H584v21.2H560.7V442.9Z" class="g4_4"/>
<path fill-rule="evenodd" d="M583.3,442.9H719.7v21.2H583.3V442.9Z" class="g4_4"/>
<path fill-rule="evenodd" d="M719,442.9h23.3v21.2H719V442.9Z" class="g4_4"/>
<path fill-rule="evenodd" d="M741.6,442.9h45.9v21.2H741.6V442.9Z" class="g4_4"/>
<path fill-rule="evenodd" d="M786.8,442.9h68.6v21.2H786.8V442.9Z" class="g4_4"/>
<path fill-rule="evenodd" d="M854.7,442.9h68.5v21.2H854.7V442.9Z" class="g4_4"/>
<path fill-rule="evenodd" d="M922.5,442.9h45.9v21.2H922.5V442.9Z" class="g4_4"/>
<path fill-rule="evenodd" d="M211,463.4h64v21.2H211V463.4Z" class="g4_4"/>
<path fill-rule="evenodd" d="M274.3,463.4h43v21.2h-43V463.4Z" class="g7_4"/>
<path fill-rule="evenodd" d="M316.5,463.4h21.9v21.2H316.5V463.4Z" class="g6_4"/>
<path fill-rule="evenodd" d="M337.6,463.4h42.9v21.2H337.6V463.4Z" class="g6_4"/>
<path fill-rule="evenodd" d="M379.8,463.4h23.4v21.2H379.8V463.4Z" class="g6_4"/>
<path fill-rule="evenodd" d="M402.5,463.4H471v21.2H402.5V463.4Z" class="g5_4"/>
<path fill-rule="evenodd" d="M470.3,463.4h23.3v21.2H470.3V463.4Z" class="g7_4"/>
<path fill-rule="evenodd" d="M492.9,463.4h68.6v21.2H492.9V463.4Z" class="g7_4"/>
<path fill-rule="evenodd" d="M560.7,463.4H584v21.2H560.7V463.4Z" class="g7_4"/>
<path fill-rule="evenodd" d="M583.3,463.4h46v21.2h-46V463.4Z" class="g7_4"/>
<path fill-rule="evenodd" d="M628.6,463.4h23.3v21.2H628.6V463.4Z" class="g7_4"/>
<path fill-rule="evenodd" d="M651.2,463.4h68.5v21.2H651.2V463.4Z" class="g7_4"/>
<path fill-rule="evenodd" d="M719,463.4h23.3v21.2H719V463.4Z" class="g7_4"/>
<path fill-rule="evenodd" d="M741.6,463.4H855.4v21.2H741.6V463.4Z" class="g7_4"/>
<path fill-rule="evenodd" d="M854.7,463.4H878v21.2H854.7V463.4Z" class="g5_4"/>
<path fill-rule="evenodd" d="M877.2,463.4h23.4v21.2H877.2V463.4Z" class="g5_4"/>
<path fill-rule="evenodd" d="M899.9,463.4h45.9v21.2H899.9V463.4Z" class="g5_4"/>
<path fill-rule="evenodd" d="M232.1,483.9H275v21.2H232.1V483.9Z" class="g4_4"/>
<path fill-rule="evenodd" d="M274.3,483.9h21.8v21.2H274.3V483.9Z" class="g7_4"/>
<path fill-rule="evenodd" d="M295.4,483.9h64v21.2h-64V483.9Z" class="g6_4"/>
<path fill-rule="evenodd" d="M358.7,483.9h21.8v21.2H358.7V483.9Z" class="g6_4"/>
<path fill-rule="evenodd" d="M379.8,483.9h46v21.2h-46V483.9Z" class="g5_4"/>
<path fill-rule="evenodd" d="M425.1,483.9h23.3v21.2H425.1V483.9Z" class="g8_4"/>
<path fill-rule="evenodd" d="M447.7,483.9h68.5v21.2H447.7V483.9Z" class="g7_4"/>
<path fill-rule="evenodd" d="M515.5,483.9h45.9v21.2H515.5V483.9Z" class="g7_4"/>
<path fill-rule="evenodd" d="M560.7,483.9h91.2v21.2H560.7V483.9Z" class="g7_4"/>
<path fill-rule="evenodd" d="M651.2,483.9h91.1v21.2H651.2V483.9Z" class="g7_4"/>
<path fill-rule="evenodd" d="M741.6,483.9h23.3v21.2H741.6V483.9Z" class="g7_4"/>
<path fill-rule="evenodd" d="M764.2,483.9h23.3v21.2H764.2V483.9Z" class="g7_4"/>
<path fill-rule="evenodd" d="M786.8,483.9h23.3v21.2H786.8V483.9Z" class="g3_4"/>
<path fill-rule="evenodd" d="M809.4,483.9H878v21.2H809.4V483.9Z" class="g5_4"/>
<path fill-rule="evenodd" d="M877.2,483.9h46v21.2h-46V483.9Z" class="g5_4"/>
<path fill-rule="evenodd" d="M253.2,504.4h42.9v21.2H253.2V504.4Z" class="g7_4"/>
<path fill-rule="evenodd" d="M295.4,504.4h64v21.2h-64V504.4Z" class="g5_4"/>
<path fill-rule="evenodd" d="M358.7,504.4h21.8v21.2H358.7V504.4Z" class="g5_4"/>
<path fill-rule="evenodd" d="M379.8,504.4h23.4v21.2H379.8V504.4Z" class="g5_4"/>
<path fill-rule="evenodd" d="M402.5,504.4h45.9v21.2H402.5V504.4Z" class="g8_4"/>
<path fill-rule="evenodd" d="M447.7,504.4h68.5v21.2H447.7V504.4Z" class="g8_4"/>
<path fill-rule="evenodd" d="M515.5,504.4h45.9v21.2H515.5V504.4Z" class="g8_4"/>
<path fill-rule="evenodd" d="M560.7,504.4h159v21.2h-159V504.4Z" class="g3_4"/>
<path fill-rule="evenodd" d="M719,504.4h23.3v21.2H719V504.4Z" class="g3_4"/>
<path fill-rule="evenodd" d="M741.6,504.4h23.3v21.2H741.6V504.4Z" class="g3_4"/>
<path fill-rule="evenodd" d="M764.2,504.4h23.3v21.2H764.2V504.4Z" class="g3_4"/>
<path fill-rule="evenodd" d="M786.8,504.4h23.3v21.2H786.8V504.4Z" class="g3_4"/>
<path fill-rule="evenodd" d="M809.4,504.4h23.4v21.2H809.4V504.4Z" class="g5_4"/>
<path fill-rule="evenodd" d="M832,504.4h68.6v21.2H832V504.4Z" class="g5_4"/>
<path fill-rule="evenodd" d="M274.3,524.9h21.8v21.2H274.3V524.9Z" class="g7_4"/>
<path fill-rule="evenodd" d="M295.4,524.9h64v21.2h-64V524.9Z" class="g5_4"/>
<path fill-rule="evenodd" d="M358.7,524.9h21.8v21.2H358.7V524.9Z" class="g5_4"/>
<path fill-rule="evenodd" d="M379.8,524.9h23.4v21.2H379.8V524.9Z" class="g5_4"/>
<path fill-rule="evenodd" d="M402.5,524.9H471v21.2H402.5V524.9Z" class="g8_4"/>
<path fill-rule="evenodd" d="M470.3,524.9h23.3v21.2H470.3V524.9Z" class="g8_4"/>
<path fill-rule="evenodd" d="M492.9,524.9H584v21.2H492.9V524.9Z" class="g8_4"/>
<path fill-rule="evenodd" d="M583.3,524.9h46v21.2h-46V524.9Z" class="g3_4"/>
<path fill-rule="evenodd" d="M628.6,524.9h23.3v21.2H628.6V524.9Z" class="g6_4"/>
<path fill-rule="evenodd" d="M651.2,524.9h68.5v21.2H651.2V524.9Z" class="g3_4"/>
<path fill-rule="evenodd" d="M719,524.9h45.9v21.2H719V524.9Z" class="g3_4"/>
<path fill-rule="evenodd" d="M764.2,524.9h23.3v21.2H764.2V524.9Z" class="g3_4"/>
<path fill-rule="evenodd" d="M786.8,524.9h23.3v21.2H786.8V524.9Z" class="g3_4"/>
<path fill-rule="evenodd" d="M809.4,524.9h46v21.2h-46V524.9Z" class="g5_4"/>
<path fill-rule="evenodd" d="M854.7,524.9H878v21.2H854.7V524.9Z" class="g5_4"/>
<path fill-rule="evenodd" d="M295.4,545.4h64v21.2h-64V545.4Z" class="g5_4"/>
<path fill-rule="evenodd" d="M358.7,545.4h21.8v21.2H358.7V545.4Z" class="g5_4"/>
<path fill-rule="evenodd" d="M379.8,545.4h23.4v21.2H379.8V545.4Z" class="g3_4"/>
<path fill-rule="evenodd" d="M402.5,545.4h23.3v21.2H402.5V545.4Z" class="g8_4"/>
<path fill-rule="evenodd" d="M425.1,545.4h23.3v21.2H425.1V545.4Z" class="g8_4"/>
<path fill-rule="evenodd" d="M447.7,545.4H584v21.2H447.7V545.4Z" class="g8_4"/>
<path fill-rule="evenodd" d="M583.3,545.4h23.4v21.2H583.3V545.4Z" class="g3_4"/>
<path fill-rule="evenodd" d="M605.9,545.4h46v21.2h-46V545.4Z" class="g6_4"/>
<path fill-rule="evenodd" d="M651.2,545.4h23.3v21.2H651.2V545.4Z" class="g3_4"/>
<path fill-rule="evenodd" d="M673.8,545.4h23.3v21.2H673.8V545.4Z" class="g6_4"/>
<path fill-rule="evenodd" d="M696.4,545.4h23.3v21.2H696.4V545.4Z" class="g3_4"/>
<path fill-rule="evenodd" d="M719,545.4h45.9v21.2H719V545.4Z" class="g3_4"/>
<path fill-rule="evenodd" d="M764.2,545.4h23.3v21.2H764.2V545.4Z" class="g3_4"/>
<path fill-rule="evenodd" d="M786.8,545.4h68.6v21.2H786.8V545.4Z" class="g3_4"/>
<path fill-rule="evenodd" d="M316.5,565.9h42.9v21.2H316.5V565.9Z" class="g5_4"/>
<path fill-rule="evenodd" d="M358.7,565.9h44.5v21.2H358.7V565.9Z" class="g3_4"/>
<path fill-rule="evenodd" d="M402.5,565.9h23.3v21.2H402.5V565.9Z" class="g5_4"/>
<path fill-rule="evenodd" d="M425.1,565.9H561.4v21.2H425.1V565.9Z" class="g5_4"/>
<path fill-rule="evenodd" d="M560.7,565.9h68.6v21.2H560.7V565.9Z" class="g3_4"/>
<path fill-rule="evenodd" d="M628.6,565.9h68.5v21.2H628.6V565.9Z" class="g6_4"/>
<path fill-rule="evenodd" d="M696.4,565.9h23.3v21.2H696.4V565.9Z" class="g3_4"/>
<path fill-rule="evenodd" d="M719,565.9h23.3v21.2H719V565.9Z" class="g3_4"/>
<path fill-rule="evenodd" d="M741.6,565.9h68.5v21.2H741.6V565.9Z" class="g3_4"/>
<path fill-rule="evenodd" d="M809.4,565.9h23.4v21.2H809.4V565.9Z" class="g3_4"/>
<path fill-rule="evenodd" d="M337.6,586.4h42.9v21.2H337.6V586.4Z" class="g5_4"/>
<path fill-rule="evenodd" d="M379.8,586.4h23.4v21.2H379.8V586.4Z" class="g3_4"/>
<path fill-rule="evenodd" d="M402.5,586.4h23.3v21.2H402.5V586.4Z" class="g5_4"/>
<path fill-rule="evenodd" d="M425.1,586.4H471v21.2H425.1V586.4Z" class="g5_4"/>
<path fill-rule="evenodd" d="M470.3,586.4h159v21.2h-159V586.4Z" class="g5_4"/>
<path fill-rule="evenodd" d="M628.6,586.4h45.9v21.2H628.6V586.4Z" class="g5_4"/>
<path fill-rule="evenodd" d="M673.8,586.4h45.9v21.2H673.8V586.4Z" class="g3_4"/>
<path fill-rule="evenodd" d="M719,586.4h91.1v21.2H719V586.4Z" class="g6_4"/>
<path fill-rule="evenodd" d="M358.7,606.9h21.8v21.2H358.7V606.9Z" class="g5_4"/>
<path fill-rule="evenodd" d="M379.8,606.9h23.4v21.2H379.8V606.9Z" class="g3_4"/>
<path fill-rule="evenodd" d="M402.5,606.9h45.9v21.2H402.5V606.9Z" class="g5_4"/>
<path fill-rule="evenodd" d="M447.7,606.9h68.5v21.2H447.7V606.9Z" class="g5_4"/>
<path fill-rule="evenodd" d="M515.5,606.9H651.9v21.2H515.5V606.9Z" class="g5_4"/>
<path fill-rule="evenodd" d="M651.2,606.9h23.3v21.2H651.2V606.9Z" class="g5_4"/>
<path fill-rule="evenodd" d="M673.8,606.9H787.5v21.2H673.8V606.9Z" class="g6_4"/>
<path fill-rule="evenodd" d="M379.8,627.4h46v21.2h-46V627.4Z" class="g3_4"/>
<path fill-rule="evenodd" d="M425.1,627.4h23.3v21.2H425.1V627.4Z" class="g5_4"/>
<path fill-rule="evenodd" d="M447.7,627.4h45.9v21.2H447.7V627.4Z" class="g5_4"/>
<path fill-rule="evenodd" d="M492.9,627.4h45.9v21.2H492.9V627.4Z" class="g3_4"/>
<path fill-rule="evenodd" d="M538.1,627.4h23.4v21.2H538.1V627.4Z" class="g6_4"/>
<path fill-rule="evenodd" d="M560.7,627.4H584v21.2H560.7V627.4Z" class="g6_4"/>
<path fill-rule="evenodd" d="M583.3,627.4h23.4v21.2H583.3V627.4Z" class="g6_4"/>
<path fill-rule="evenodd" d="M605.9,627.4h23.4v21.2H605.9V627.4Z" class="g6_4"/>
<path fill-rule="evenodd" d="M628.6,627.4h23.3v21.2H628.6V627.4Z" class="g3_4"/>
<path fill-rule="evenodd" d="M651.2,627.4h23.3v21.2H651.2V627.4Z" class="g3_4"/>
<path fill-rule="evenodd" d="M673.8,627.4h91.1v21.2H673.8V627.4Z" class="g6_4"/>
<path fill-rule="evenodd" d="M402.5,647.9h45.9v21.2H402.5V647.9Z" class="g5_4"/>
<path fill-rule="evenodd" d="M447.7,647.9h45.9v21.2H447.7V647.9Z" class="g5_4"/>
<path fill-rule="evenodd" d="M492.9,647.9h45.9v21.2H492.9V647.9Z" class="g3_4"/>
<path fill-rule="evenodd" d="M538.1,647.9h68.6v21.2H538.1V647.9Z" class="g6_4"/>
<path fill-rule="evenodd" d="M605.9,647.9h23.4v21.2H605.9V647.9Z" class="g6_4"/>
<path fill-rule="evenodd" d="M628.6,647.9h23.3v21.2H628.6V647.9Z" class="g3_4"/>
<path fill-rule="evenodd" d="M651.2,647.9h68.5v21.2H651.2V647.9Z" class="g3_4"/>
<path fill-rule="evenodd" d="M719,647.9h23.3v21.2H719V647.9Z" class="g6_4"/>
<path fill-rule="evenodd" d="M425.1,668.4h68.5v21.2H425.1V668.4Z" class="g6_4"/>
<path fill-rule="evenodd" d="M492.9,668.4h68.6v21.2H492.9V668.4Z" class="g3_4"/>
<path fill-rule="evenodd" d="M560.7,668.4H584v21.2H560.7V668.4Z" class="g6_4"/>
<path fill-rule="evenodd" d="M583.3,668.4h23.4v21.2H583.3V668.4Z" class="g6_4"/>
<path fill-rule="evenodd" d="M605.9,668.4h23.4v21.2H605.9V668.4Z" class="g6_4"/>
<path fill-rule="evenodd" d="M628.6,668.4h91.1v21.2H628.6V668.4Z" class="g3_4"/>
<path fill-rule="evenodd" d="M447.7,688.9h45.9v21.2H447.7V688.9Z" class="g3_4"/>
<path fill-rule="evenodd" d="M492.9,688.9h45.9v21.2H492.9V688.9Z" class="g3_4"/>
<path fill-rule="evenodd" d="M538.1,688.9h23.4v21.2H538.1V688.9Z" class="g7_4"/>
<path fill-rule="evenodd" d="M560.7,688.9H584v21.2H560.7V688.9Z" class="g6_4"/>
<path fill-rule="evenodd" d="M583.3,688.9h23.4v21.2H583.3V688.9Z" class="g6_4"/>
<path fill-rule="evenodd" d="M605.9,688.9h68.6v21.2H605.9V688.9Z" class="g6_4"/>
<path fill-rule="evenodd" d="M673.8,688.9h23.3v21.2H673.8V688.9Z" class="g3_4"/>
<path fill-rule="evenodd" d="M470.3,709.4h68.5v21.2H470.3V709.4Z" class="g3_4"/>
<path fill-rule="evenodd" d="M538.1,709.4h23.4v21.2H538.1V709.4Z" class="g7_4"/>
<path fill-rule="evenodd" d="M560.7,709.4h91.2v21.2H560.7V709.4Z" class="g7_4"/>
<path fill-rule="evenodd" d="M651.2,709.4h23.3v21.2H651.2V709.4Z" class="g7_4"/>
<path fill-rule="evenodd" d="M492.9,729.9h45.9v21.3H492.9V729.9Z" class="g3_4"/>
<path fill-rule="evenodd" d="M538.1,729.9H584v21.3H538.1V729.9Z" class="g7_4"/>
<path fill-rule="evenodd" d="M583.3,729.9h23.4v21.3H583.3V729.9Z" class="g7_4"/>
<path fill-rule="evenodd" d="M605.9,729.9h46v21.3h-46V729.9Z" class="g7_4"/>
<path fill-rule="evenodd" d="M515.5,750.4h45.9v21.2H515.5V750.4Z" class="g7_4"/>
<path fill-rule="evenodd" d="M560.7,750.4h68.6v21.2H560.7V750.4Z" class="g7_4"/>
<path clip-path="url(#c3_4)" fill-rule="evenodd" d="M945.1,750.4h23.3v21.2H945.1V750.4Z" class="g9_4"/>
<path fill-rule="evenodd" d="M538.1,771h23.4v21.1H538.1V771Z" class="g7_4"/>
<path fill-rule="evenodd" d="M560.7,771h45.9v21.1H560.7V771Z" class="g7_4"/>
<path fill-rule="evenodd" d="M517,52.6h22.6v2.2H517V52.6Z" class="g1_4"/>
<path fill-rule="evenodd" d="M562.2,52.6h22.6v2.2H562.2V52.6Z" class="g1_4"/>
<path fill-rule="evenodd" d="M494.4,73.1h67.8v2.2H494.4V73.1Z" class="g1_4"/>
<path clip-path="url(#c4_4)" fill-rule="evenodd" d="M537.4,32.1h2.2V54.8h-2.2V32.1Z" class="g1_4"/>
<path fill-rule="evenodd" d="M471.8,93.6h22.6v2.2H471.8V93.6Z" class="g1_4"/>
<path fill-rule="evenodd" d="M605.2,34.3h2.2V54.8h-2.2V34.3Z" class="g1_4"/>
<path fill-rule="evenodd" d="M539.6,93.6h45.2v2.2H539.6V93.6Z" class="g1_4"/>
<path fill-rule="evenodd" d="M492.1,73.1h2.3V95.8h-2.3V73.1Z" class="g1_4"/>
<path fill-rule="evenodd" d="M449.2,114.1h22.6v2.2H449.2v-2.2Z" class="g1_4"/>
<path fill-rule="evenodd" d="M582.6,54.8h2.2V75.3h-2.2V54.8Z" class="g1_4"/>
<path fill-rule="evenodd" d="M627.8,54.8H630V75.3h-2.2V54.8Z" class="g1_4"/>
<path fill-rule="evenodd" d="M494.4,114.1h67.8v2.2H494.4v-2.2Z" class="g1_4"/>
<path fill-rule="evenodd" d="M630,114.1h22.6v2.2H630v-2.2Z" class="g1_4"/>
<path fill-rule="evenodd" d="M426.6,134.6h22.6v2.2H426.6v-2.2Z" class="g1_4"/>
<path fill-rule="evenodd" d="M514.7,52.6H517V75.3h-2.3V52.6Z" class="g1_4"/>
<path fill-rule="evenodd" d="M471.8,134.6h22.6v2.2H471.8v-2.2Z" class="g1_4"/>
<path fill-rule="evenodd" d="M560,52.6h2.2V95.8H560V52.6Z" class="g1_4"/>
<path fill-rule="evenodd" d="M517,134.6h22.6v2.2H517v-2.2Z" class="g1_4"/>
<path fill-rule="evenodd" d="M650.4,75.3h2.2v41h-2.2v-41Z" class="g1_4"/>
<path fill-rule="evenodd" d="M584.8,134.6h22.6v2.2H584.8v-2.2Z" class="g1_4"/>
<path fill-rule="evenodd" d="M404,155.1h22.5v2.2H404v-2.2Z" class="g1_4"/>
<path fill-rule="evenodd" d="M537.4,93.6h2.2v43.2h-2.2V93.6Z" class="g1_4"/>
<path fill-rule="evenodd" d="M449.2,155.1h45.2v2.2H449.2v-2.2Z" class="g1_4"/>
<path fill-rule="evenodd" d="M605.2,93.6h2.2v43.2h-2.2V93.6Z" class="g1_4"/>
<path fill-rule="evenodd" d="M539.6,155.1h22.6v2.2H539.6v-2.2Z" class="g1_4"/>
<path fill-rule="evenodd" d="M673,95.8h2.2v20.5H673V95.8Z" class="g1_4"/>
<path fill-rule="evenodd" d="M607.5,155.1H630v2.2H607.5v-2.2Z" class="g1_4"/>
<path fill-rule="evenodd" d="M675.3,155.1h22.6v2.2H675.3v-2.2Z" class="g1_4"/>
<path fill-rule="evenodd" d="M424.3,134.6h2.2v22.7h-2.2V134.6Z" class="g1_4"/>
<path fill-rule="evenodd" d="M381.4,175.6H404v2.2H381.4v-2.2Z" class="g1_4"/>
<path fill-rule="evenodd" d="M469.5,93.6h2.3v43.2h-2.3V93.6Z" class="g1_4"/>
<path fill-rule="evenodd" d="M426.6,175.6h22.6v2.2H426.6v-2.2Z" class="g1_4"/>
<path fill-rule="evenodd" d="M492.1,114.1h2.3v22.7h-2.3V114.1Z" class="g1_4"/>
<path fill-rule="evenodd" d="M560,116.3h2.2v41H560v-41Z" class="g1_4"/>
<path fill-rule="evenodd" d="M471.8,175.6H517v2.2H471.8v-2.2Z" class="g1_4"/>
<path fill-rule="evenodd" d="M562.2,175.6h22.6v2.2H562.2v-2.2Z" class="g1_4"/>
<path fill-rule="evenodd" d="M695.6,116.3h2.3v41h-2.3v-41Z" class="g1_4"/>
<path fill-rule="evenodd" d="M607.5,175.6h45.1v2.2H607.5v-2.2Z" class="g1_4"/>
<path fill-rule="evenodd" d="M697.9,175.6h22.6v2.2H697.9v-2.2Z" class="g1_4"/>
<path fill-rule="evenodd" d="M360.3,196.1h21v2.2h-21v-2.2Z" class="g1_4"/>
<path fill-rule="evenodd" d="M446.9,114.1h2.2v43.2h-2.2V114.1Z" class="g1_4"/>
<path fill-rule="evenodd" d="M404,196.1h22.5v2.2H404v-2.2Z" class="g1_4"/>
<path fill-rule="evenodd" d="M514.7,134.6H517v43.2h-2.3V134.6Z" class="g1_4"/>
<path fill-rule="evenodd" d="M449.2,196.1h22.6v2.2H449.2v-2.2Z" class="g1_4"/>
<path fill-rule="evenodd" d="M517,196.1h45.2v2.2H517v-2.2Z" class="g1_4"/>
<path fill-rule="evenodd" d="M584.8,196.1h67.8v2.2H584.8v-2.2Z" class="g1_4"/>
<path fill-rule="evenodd" d="M718.2,136.8h2.3v20.5h-2.3V136.8Z" class="g1_4"/>
<path fill-rule="evenodd" d="M675.3,196.1h22.6v2.2H675.3v-2.2Z" class="g1_4"/>
<path fill-rule="evenodd" d="M469.5,175.6h2.3v22.7h-2.3V175.6Z" class="g1_4"/>
<path fill-rule="evenodd" d="M339.1,216.6h87.4v2.2H339.1v-2.2Z" class="g1_4"/>
<path fill-rule="evenodd" d="M471.8,216.6h90.4v2.2H471.8v-2.2Z" class="g1_4"/>
<path fill-rule="evenodd" d="M650.4,134.6h2.2v43.2h-2.2V134.6Z" class="g1_4"/>
<path fill-rule="evenodd" d="M584.8,216.6H630v2.2H584.8v-2.2Z" class="g1_4"/>
<path fill-rule="evenodd" d="M695.6,175.6h2.3v22.7h-2.3V175.6Z" class="g1_4"/>
<path fill-rule="evenodd" d="M652.7,216.6h22.6v2.2H652.7v-2.2Z" class="g1_4"/>
<path fill-rule="evenodd" d="M697.9,216.6h67.8v2.2H697.9v-2.2Z" class="g1_4"/>
<path fill-rule="evenodd" d="M358,196.1h2.2v22.7H358V196.1Z" class="g1_4"/>
<path fill-rule="evenodd" d="M318,237.1h21.1v2.2H318v-2.2Z" class="g1_4"/>
<path fill-rule="evenodd" d="M424.3,175.6h2.2v22.7h-2.2V175.6Z" class="g1_4"/>
<path fill-rule="evenodd" d="M492.1,157.3h2.3v61.5h-2.3V157.3Z" class="g1_4"/>
<path fill-rule="evenodd" d="M360.3,237.1h88.9v2.2H360.3v-2.2Z" class="g1_4"/>
<path fill-rule="evenodd" d="M537.4,155.1h2.2v43.2h-2.2V155.1Z" class="g1_4"/>
<path fill-rule="evenodd" d="M560,175.6h2.2v22.7H560V175.6Z" class="g1_4"/>
<path fill-rule="evenodd" d="M494.4,237.1H517v2.2H494.4v-2.2Z" class="g1_4"/>
<path fill-rule="evenodd" d="M627.8,114.1H630v43.2h-2.2V114.1Z" class="g1_4"/>
<path fill-rule="evenodd" d="M562.2,237.1H630v2.2H562.2v-2.2Z" class="g1_4"/>
<path fill-rule="evenodd" d="M718.2,177.8h2.3v20.5h-2.3V177.8Z" class="g1_4"/>
<path fill-rule="evenodd" d="M652.7,237.1h45.2v2.2H652.7v-2.2Z" class="g1_4"/>
<path fill-rule="evenodd" d="M740.9,157.3h2.2v20.5h-2.2V157.3Z" class="g1_4"/>
<path fill-rule="evenodd" d="M720.5,237.1h67.8v2.2H720.5v-2.2Z" class="g1_4"/>
<path fill-rule="evenodd" d="M336.9,216.6h2.2v22.7h-2.2V216.6Z" class="g1_4"/>
<path fill-rule="evenodd" d="M297,257.6h21v2.2H297v-2.2Z" class="g1_4"/>
<path fill-rule="evenodd" d="M379.1,175.6h2.2v22.7h-2.2V175.6Z" class="g1_4"/>
<path fill-rule="evenodd" d="M401.7,155.1h2.2v43.2h-2.2V155.1Z" class="g1_4"/>
<path fill-rule="evenodd" d="M339.1,257.6h21.1v2.2H339.1v-2.2Z" class="g1_4"/>
<path fill-rule="evenodd" d="M404,257.6h67.8v2.2H404v-2.2Z" class="g1_4"/>
<path fill-rule="evenodd" d="M560,218.8h2.2v20.5H560V218.8Z" class="g1_4"/>
<path fill-rule="evenodd" d="M494.4,257.6H517v2.2H494.4v-2.2Z" class="g1_4"/>
<path fill-rule="evenodd" d="M605.2,155.1h2.2v43.2h-2.2V155.1Z" class="g1_4"/>
<path fill-rule="evenodd" d="M562.2,257.6h22.6v2.2H562.2v-2.2Z" class="g1_4"/>
<path fill-rule="evenodd" d="M630,257.6h67.9v2.2H630v-2.2Z" class="g1_4"/>
<path fill-rule="evenodd" d="M786.1,198.3h2.2v20.5h-2.2V198.3Z" class="g1_4"/>
<path fill-rule="evenodd" d="M720.5,257.6h45.2v2.2H720.5v-2.2Z" class="g1_4"/>
<path fill-rule="evenodd" d="M788.3,257.6h22.6v2.2H788.3v-2.2Z" class="g1_4"/>
<path fill-rule="evenodd" d="M275.8,278.1h21.1v2.2H275.8v-2.2Z" class="g1_4"/>
<path fill-rule="evenodd" d="M318,278.1h21.1v2.2H318v-2.2Z" class="g1_4"/>
<path fill-rule="evenodd" d="M424.3,218.8h2.2v20.5h-2.2V218.8Z" class="g1_4"/>
<path fill-rule="evenodd" d="M381.4,278.1H404v2.2H381.4v-2.2Z" class="g1_4"/>
<path fill-rule="evenodd" d="M514.7,196.1H517v43.2h-2.3V196.1Z" class="g1_4"/>
<path fill-rule="evenodd" d="M426.6,278.1H517v2.2H426.6v-2.2Z" class="g1_4"/>
<path fill-rule="evenodd" d="M582.6,95.8h2.2v123h-2.2V95.8Z" class="g1_4"/>
<path fill-rule="evenodd" d="M539.6,278.1h22.6v2.2H539.6v-2.2Z" class="g1_4"/>
<path fill-rule="evenodd" d="M673,155.1h2.2v63.7H673V155.1Z" class="g1_4"/>
<path fill-rule="evenodd" d="M607.5,278.1H630v2.2H607.5v-2.2Z" class="g1_4"/>
<path fill-rule="evenodd" d="M763.4,177.8h2.3v41h-2.3v-41Z" class="g1_4"/>
<path fill-rule="evenodd" d="M808.7,218.8h2.2v20.5h-2.2V218.8Z" class="g1_4"/>
<path fill-rule="evenodd" d="M675.3,278.1h90.4v2.2H675.3v-2.2Z" class="g1_4"/>
<path fill-rule="evenodd" d="M810.9,278.1h22.6v2.2H810.9v-2.2Z" class="g1_4"/>
<path fill-rule="evenodd" d="M294.7,257.6h2.2v22.7h-2.2V257.6Z" class="g1_4"/>
<path fill-rule="evenodd" d="M254.7,298.6h21.1v2.2H254.7v-2.2Z" class="g1_4"/>
<path fill-rule="evenodd" d="M379.1,239.3h2.2v41h-2.2v-41Z" class="g1_4"/>
<path fill-rule="evenodd" d="M297,298.6h63.2v2.2H297v-2.2Z" class="g1_4"/>
<path fill-rule="evenodd" d="M401.7,239.3h2.2v20.5h-2.2V239.3Z" class="g1_4"/>
<path fill-rule="evenodd" d="M424.3,259.8h2.2v20.5h-2.2V259.8Z" class="g1_4"/>
<path fill-rule="evenodd" d="M381.4,298.6H404v2.2H381.4v-2.2Z" class="g1_4"/>
<path fill-rule="evenodd" d="M469.5,216.6h2.3v43.2h-2.3V216.6Z" class="g1_4"/>
<path fill-rule="evenodd" d="M492.1,237.1h2.3v22.7h-2.3V237.1Z" class="g1_4"/>
<path fill-rule="evenodd" d="M426.6,298.6h45.2v2.2H426.6v-2.2Z" class="g1_4"/>
<path fill-rule="evenodd" d="M494.4,298.6H517v2.2H494.4v-2.2Z" class="g1_4"/>
<path fill-rule="evenodd" d="M627.8,218.8H630v41h-2.2v-41Z" class="g1_4"/>
<path fill-rule="evenodd" d="M584.8,298.6h22.6v2.2H584.8v-2.2Z" class="g1_4"/>
<path fill-rule="evenodd" d="M695.6,216.6h2.3v43.2h-2.3V216.6Z" class="g1_4"/>
<path fill-rule="evenodd" d="M718.2,237.1h2.3v22.7h-2.3V237.1Z" class="g1_4"/>
<path fill-rule="evenodd" d="M630,298.6h22.6v2.2H630v-2.2Z" class="g1_4"/>
<path fill-rule="evenodd" d="M720.5,298.6h67.8v2.2H720.5v-2.2Z" class="g1_4"/>
<path fill-rule="evenodd" d="M833.5,298.6h22.6v2.2H833.5v-2.2Z" class="g1_4"/>
<path fill-rule="evenodd" d="M233.6,319.1h21.1v2.2H233.6v-2.2Z" class="g1_4"/>
<path fill-rule="evenodd" d="M315.8,237.1H318v43.2h-2.2V237.1Z" class="g1_4"/>
<path fill-rule="evenodd" d="M275.8,319.1h21.1v2.2H275.8v-2.2Z" class="g1_4"/>
<path fill-rule="evenodd" d="M318,319.1h63.3v2.2H318v-2.2Z" class="g1_4"/>
<path fill-rule="evenodd" d="M446.9,177.8h2.2v61.5h-2.2V177.8Z" class="g1_4"/>
<path fill-rule="evenodd" d="M404,319.1h22.5v2.2H404v-2.2Z" class="g1_4"/>
<path fill-rule="evenodd" d="M514.7,259.8H517v20.5h-2.3V259.8Z" class="g1_4"/>
<path fill-rule="evenodd" d="M449.2,319.1h22.6v2.2H449.2v-2.2Z" class="g1_4"/>
<path fill-rule="evenodd" d="M517,319.1h22.6v2.2H517v-2.2Z" class="g1_4"/>
<path fill-rule="evenodd" d="M650.4,198.3h2.2v41h-2.2v-41Z" class="g1_4"/>
<path fill-rule="evenodd" d="M562.2,319.1H675.3v2.2H562.2v-2.2Z" class="g1_4"/>
<path fill-rule="evenodd" d="M740.9,218.8h2.2v20.5h-2.2V218.8Z" class="g1_4"/>
<path fill-rule="evenodd" d="M697.9,319.1h22.6v2.2H697.9v-2.2Z" class="g1_4"/>
<path fill-rule="evenodd" d="M763.4,259.8h2.3v20.5h-2.3V259.8Z" class="g1_4"/>
<path fill-rule="evenodd" d="M853.9,259.8h2.2v20.5h-2.2V259.8Z" class="g1_4"/>
<path fill-rule="evenodd" d="M743.1,319.1H878.7v2.2H743.1v-2.2Z" class="g1_4"/>
<path fill-rule="evenodd" d="M273.6,278.1h2.2v43.2h-2.2V278.1Z" class="g1_4"/>
<path fill-rule="evenodd" d="M212.6,339.7h42.1v2.1H212.6v-2.1Z" class="g1_4"/>
<path fill-rule="evenodd" d="M336.9,257.6h2.2v22.7h-2.2V257.6Z" class="g1_4"/>
<path fill-rule="evenodd" d="M275.8,339.7H318v2.1H275.8v-2.1Z" class="g1_4"/>
<path fill-rule="evenodd" d="M446.9,300.9h2.2v20.4h-2.2V300.9Z" class="g1_4"/>
<path fill-rule="evenodd" d="M339.1,339.7h42.2v2.1H339.1v-2.1Z" class="g1_4"/>
<path fill-rule="evenodd" d="M469.5,280.3h2.3v20.5h-2.3V280.3Z" class="g1_4"/>
<path fill-rule="evenodd" d="M449.2,339.7h45.2v2.1H449.2v-2.1Z" class="g1_4"/>
<path fill-rule="evenodd" d="M560,257.6h2.2v63.7H560V257.6Z" class="g1_4"/>
<path fill-rule="evenodd" d="M517,339.7h22.6v2.1H517v-2.1Z" class="g1_4"/>
<path fill-rule="evenodd" d="M582.6,259.8h2.2v41h-2.2v-41Z" class="g1_4"/>
<path fill-rule="evenodd" d="M627.8,280.3H630v20.5h-2.2V280.3Z" class="g1_4"/>
<path fill-rule="evenodd" d="M695.6,280.3h2.3v41h-2.3v-41Z" class="g1_4"/>
<path fill-rule="evenodd" d="M562.2,339.7h22.6v2.1H562.2v-2.1Z" class="g1_4"/>
<path fill-rule="evenodd" d="M718.2,280.3h2.3v20.5h-2.3V280.3Z" class="g1_4"/>
<path fill-rule="evenodd" d="M808.7,259.8h2.2v20.5h-2.2V259.8Z" class="g1_4"/>
<path fill-rule="evenodd" d="M876.5,280.3h2.2v20.5h-2.2V280.3Z" class="g1_4"/>
<path fill-rule="evenodd" d="M697.9,339.7h22.6v2.1H697.9v-2.1Z" class="g1_4"/>
<path fill-rule="evenodd" d="M252.5,298.6h2.2v22.7h-2.2V298.6Z" class="g1_4"/>
<path fill-rule="evenodd" d="M191.4,360.1h21.1v2.3H191.4v-2.3Z" class="g1_4"/>
<path fill-rule="evenodd" d="M315.8,300.9H318v40.9h-2.2V300.9Z" class="g1_4"/>
<path fill-rule="evenodd" d="M254.7,360.1h42.2v2.3H254.7v-2.3Z" class="g1_4"/>
<path fill-rule="evenodd" d="M358,237.1h2.2v63.7H358V237.1Z" class="g1_4"/>
<path fill-rule="evenodd" d="M318,360.1h21.1v2.3H318v-2.3Z" class="g1_4"/>
<path fill-rule="evenodd" d="M360.3,360.1h21v2.3h-21v-2.3Z" class="g1_4"/>
<path fill-rule="evenodd" d="M492.1,280.3h2.3v20.5h-2.3V280.3Z" class="g1_4"/>
<path fill-rule="evenodd" d="M404,360.1h22.5v2.3H404v-2.3Z" class="g1_4"/>
<path fill-rule="evenodd" d="M537.4,218.8h2.2V321.3h-2.2V218.8Z" class="g1_4"/>
<path fill-rule="evenodd" d="M605.2,239.3h2.2v61.5h-2.2V239.3Z" class="g1_4"/>
<path fill-rule="evenodd" d="M494.4,360.1H517v2.3H494.4v-2.3Z" class="g1_4"/>
<path fill-rule="evenodd" d="M607.5,360.1H630v2.3H607.5v-2.3Z" class="g1_4"/>
<path fill-rule="evenodd" d="M652.7,360.1h45.2v2.3H652.7v-2.3Z" class="g1_4"/>
<path fill-rule="evenodd" d="M765.7,360.1h22.6v2.3H765.7v-2.3Z" class="g1_4"/>
<path fill-rule="evenodd" d="M856.1,360.1h45.3v2.3H856.1v-2.3Z" class="g1_4"/>
<path fill-rule="evenodd" d="M294.7,298.6h2.2v22.7h-2.2V298.6Z" class="g1_4"/>
<path fill-rule="evenodd" d="M170.3,380.7h84.4v2.1H170.3v-2.1Z" class="g1_4"/>
<path fill-rule="evenodd" d="M336.9,339.7h2.2v22.7h-2.2V339.7Z" class="g1_4"/>
<path fill-rule="evenodd" d="M297,380.7h21v2.1H297v-2.1Z" class="g1_4"/>
<path fill-rule="evenodd" d="M401.7,280.3h2.2v82.1h-2.2V280.3Z" class="g1_4"/>
<path fill-rule="evenodd" d="M339.1,380.7h42.2v2.1H339.1v-2.1Z" class="g1_4"/>
<path fill-rule="evenodd" d="M424.3,298.6h2.2v22.7h-2.2V298.6Z" class="g1_4"/>
<path fill-rule="evenodd" d="M404,380.7h45.1v2.1H404v-2.1Z" class="g1_4"/>
<path fill-rule="evenodd" d="M471.8,380.7H517v2.1H471.8v-2.1Z" class="g1_4"/>
<path fill-rule="evenodd" d="M650.4,300.9h2.2v61.5h-2.2V300.9Z" class="g1_4"/>
<path fill-rule="evenodd" d="M539.6,380.7h67.8v2.1H539.6v-2.1Z" class="g1_4"/>
<path fill-rule="evenodd" d="M652.7,380.7h45.2v2.1H652.7v-2.1Z" class="g1_4"/>
<path fill-rule="evenodd" d="M786.1,239.3h2.2v61.5h-2.2V239.3Z" class="g1_4"/>
<path fill-rule="evenodd" d="M831.3,239.3h2.2v61.5h-2.2V239.3Z" class="g1_4"/>
<path fill-rule="evenodd" d="M720.5,380.7h22.6v2.1H720.5v-2.1Z" class="g1_4"/>
<path fill-rule="evenodd" d="M876.5,321.3h2.2v20.5h-2.2V321.3Z" class="g1_4"/>
<path fill-rule="evenodd" d="M899.1,300.9h2.3v20.4h-2.3V300.9Z" class="g1_4"/>
<path fill-rule="evenodd" d="M833.5,380.7h22.6v2.1H833.5v-2.1Z" class="g1_4"/>
<path fill-rule="evenodd" d="M210.3,339.7h2.2v22.7h-2.2V339.7Z" class="g1_4"/>
<path fill-rule="evenodd" d="M252.5,341.9h2.2v20.5h-2.2V341.9Z" class="g1_4"/>
<path fill-rule="evenodd" d="M212.6,401.2h21v2.1h-21v-2.1Z" class="g1_4"/>
<path fill-rule="evenodd" d="M294.7,362.4h2.2v20.4h-2.2V362.4Z" class="g1_4"/>
<path fill-rule="evenodd" d="M254.7,401.2h21.1v2.1H254.7v-2.1Z" class="g1_4"/>
<path fill-rule="evenodd" d="M379.1,298.6h2.2v63.8h-2.2V298.6Z" class="g1_4"/>
<path fill-rule="evenodd" d="M297,401.2h21v2.1H297v-2.1Z" class="g1_4"/>
<path fill-rule="evenodd" d="M381.4,401.2H404v2.1H381.4v-2.1Z" class="g1_4"/>
<path fill-rule="evenodd" d="M492.1,341.9h2.3v20.5h-2.3V341.9Z" class="g1_4"/>
<path fill-rule="evenodd" d="M426.6,401.2h45.2v2.1H426.6v-2.1Z" class="g1_4"/>
<path fill-rule="evenodd" d="M514.7,300.9H517v61.5h-2.3V300.9Z" class="g1_4"/>
<path fill-rule="evenodd" d="M695.6,339.7h2.3v43.1h-2.3V339.7Z" class="g1_4"/>
<path fill-rule="evenodd" d="M494.4,401.2h90.4v2.1H494.4v-2.1Z" class="g1_4"/>
<path fill-rule="evenodd" d="M697.9,401.2h90.4v2.1H697.9v-2.1Z" class="g1_4"/>
<path fill-rule="evenodd" d="M810.9,401.2h22.6v2.1H810.9v-2.1Z" class="g1_4"/>
<path fill-rule="evenodd" d="M944.3,341.9h2.3v20.5h-2.3V341.9Z" class="g1_4"/>
<path fill-rule="evenodd" d="M231.4,319.1h2.2v22.7h-2.2V319.1Z" class="g1_4"/>
<path fill-rule="evenodd" d="M191.4,421.7h21.1v2.1H191.4v-2.1Z" class="g1_4"/>
<path fill-rule="evenodd" d="M297,421.7h42.1v2.1H297v-2.1Z" class="g1_4"/>
<path fill-rule="evenodd" d="M469.5,321.3h2.3v61.5h-2.3V321.3Z" class="g1_4"/>
<path fill-rule="evenodd" d="M537.4,341.9h2.2v40.9h-2.2V341.9Z" class="g1_4"/>
<path fill-rule="evenodd" d="M360.3,421.7H494.4v2.1H360.3v-2.1Z" class="g1_4"/>
<path fill-rule="evenodd" d="M582.6,321.3h2.2v20.5h-2.2V321.3Z" class="g1_4"/>
<path fill-rule="evenodd" d="M562.2,421.7h22.6v2.1H562.2v-2.1Z" class="g1_4"/>
<path fill-rule="evenodd" d="M718.2,321.3h2.3v82h-2.3v-82Z" class="g1_4"/>
<path fill-rule="evenodd" d="M630,421.7h67.9v2.1H630v-2.1Z" class="g1_4"/>
<path fill-rule="evenodd" d="M740.9,319.1h2.2v63.7h-2.2V319.1Z" class="g1_4"/>
<path fill-rule="evenodd" d="M720.5,421.7h22.6v2.1H720.5v-2.1Z" class="g1_4"/>
<path fill-rule="evenodd" d="M921.7,321.3H924v61.5h-2.3V321.3Z" class="g1_4"/>
<path fill-rule="evenodd" d="M788.3,421.7h22.6v2.1H788.3v-2.1Z" class="g1_4"/>
<path clip-path="url(#c4_4)" fill-rule="evenodd" d="M966.9,362.4h2.3v20.4h-2.3V362.4Z" class="g1_4"/>
<path fill-rule="evenodd" d="M210.3,401.2h2.2v22.6h-2.2V401.2Z" class="g1_4"/>
<path fill-rule="evenodd" d="M170.3,442.2h21.1v2.1H170.3v-2.1Z" class="g1_4"/>
<path fill-rule="evenodd" d="M212.6,442.2h21v2.1h-21v-2.1Z" class="g1_4"/>
<path fill-rule="evenodd" d="M315.8,360.1H318v43.2h-2.2V360.1Z" class="g1_4"/>
<path fill-rule="evenodd" d="M254.7,442.2h42.2v2.1H254.7v-2.1Z" class="g1_4"/>
<path fill-rule="evenodd" d="M424.3,362.4h2.2v40.9h-2.2V362.4Z" class="g1_4"/>
<path fill-rule="evenodd" d="M446.9,339.7h2.2v43.1h-2.2V339.7Z" class="g1_4"/>
<path fill-rule="evenodd" d="M318,442.2H426.5v2.1H318v-2.1Z" class="g1_4"/>
<path fill-rule="evenodd" d="M449.2,442.2H517v2.1H449.2v-2.1Z" class="g1_4"/>
<path fill-rule="evenodd" d="M539.6,442.2H697.9v2.1H539.6v-2.1Z" class="g1_4"/>
<path fill-rule="evenodd" d="M720.5,442.2h22.6v2.1H720.5v-2.1Z" class="g1_4"/>
<path fill-rule="evenodd" d="M810.9,442.2h22.6v2.1H810.9v-2.1Z" class="g1_4"/>
<path fill-rule="evenodd" d="M944.3,382.9h2.3v20.4h-2.3V382.9Z" class="g1_4"/>
<path fill-rule="evenodd" d="M189.2,360.1h2.2v63.7h-2.2V360.1Z" class="g1_4"/>
<path fill-rule="evenodd" d="M191.4,462.6h21.1v2.3H191.4v-2.3Z" class="g1_4"/>
<path fill-rule="evenodd" d="M273.6,339.7h2.2v63.6h-2.2V339.7Z" class="g1_4"/>
<path fill-rule="evenodd" d="M233.6,462.6h21.1v2.3H233.6v-2.3Z" class="g1_4"/>
<path fill-rule="evenodd" d="M336.9,380.7h2.2v43.1h-2.2V380.7Z" class="g1_4"/>
<path fill-rule="evenodd" d="M358,360.1h2.2v63.7H358V360.1Z" class="g1_4"/>
<path fill-rule="evenodd" d="M297,462.6h21v2.3H297v-2.3Z" class="g1_4"/>
<path fill-rule="evenodd" d="M401.7,380.7h2.2v22.6h-2.2V380.7Z" class="g1_4"/>
<path fill-rule="evenodd" d="M360.3,462.6h21v2.3h-21v-2.3Z" class="g1_4"/>
<path fill-rule="evenodd" d="M492.1,401.2h2.3v22.6h-2.3V401.2Z" class="g1_4"/>
<path fill-rule="evenodd" d="M404,462.6h67.8v2.3H404v-2.3Z" class="g1_4"/>
<path fill-rule="evenodd" d="M514.7,382.9H517v20.4h-2.3V382.9Z" class="g1_4"/>
<path fill-rule="evenodd" d="M560,339.7h2.2v84.1H560V339.7Z" class="g1_4"/>
<path fill-rule="evenodd" d="M582.6,403.4h2.2v20.4h-2.2V403.4Z" class="g1_4"/>
<path fill-rule="evenodd" d="M627.8,321.3H630V423.8h-2.2V321.3Z" class="g1_4"/>
<path fill-rule="evenodd" d="M494.4,462.6h67.8v2.3H494.4v-2.3Z" class="g1_4"/>
<path fill-rule="evenodd" d="M673,259.8h2.2v61.5H673V259.8Z" class="g1_4"/>
<path fill-rule="evenodd" d="M740.9,403.4h2.2v20.4h-2.2V403.4Z" class="g1_4"/>
<path fill-rule="evenodd" d="M630,462.6h22.6v2.3H630v-2.3Z" class="g1_4"/>
<path fill-rule="evenodd" d="M831.3,380.7h2.2v22.6h-2.2V380.7Z" class="g1_4"/>
<path fill-rule="evenodd" d="M743.1,462.6h45.2v2.3H743.1v-2.3Z" class="g1_4"/>
<path fill-rule="evenodd" d="M921.7,403.4H924v20.4h-2.3V403.4Z" class="g1_4"/>
<path fill-rule="evenodd" d="M944.3,423.8h2.3v20.5h-2.3V423.8Z" class="g1_4"/>
<path fill-rule="evenodd" d="M856.1,462.6H924v2.3H856.1v-2.3Z" class="g1_4"/>
<path fill-rule="evenodd" d="M294.7,401.2h2.2v63.7h-2.2V401.2Z" class="g1_4"/>
<path fill-rule="evenodd" d="M212.6,483.2h21v2.1h-21v-2.1Z" class="g1_4"/>
<path fill-rule="evenodd" d="M315.8,423.8H318v20.5h-2.2V423.8Z" class="g1_4"/>
<path fill-rule="evenodd" d="M297,483.2h21v2.1H297v-2.1Z" class="g1_4"/>
<path fill-rule="evenodd" d="M379.1,382.9h2.2v20.4h-2.2V382.9Z" class="g1_4"/>
<path fill-rule="evenodd" d="M339.1,483.2h21.1v2.1H339.1v-2.1Z" class="g1_4"/>
<path fill-rule="evenodd" d="M424.3,423.8h2.2v20.5h-2.2V423.8Z" class="g1_4"/>
<path fill-rule="evenodd" d="M381.4,483.2H404v2.1H381.4v-2.1Z" class="g1_4"/>
<path fill-rule="evenodd" d="M469.5,403.4h2.3v40.9h-2.3V403.4Z" class="g1_4"/>
<path fill-rule="evenodd" d="M426.6,483.2h45.2v2.1H426.6v-2.1Z" class="g1_4"/>
<path fill-rule="evenodd" d="M494.4,483.2H517v2.1H494.4v-2.1Z" class="g1_4"/>
<path fill-rule="evenodd" d="M650.4,380.7h2.2v43.1h-2.2V380.7Z" class="g1_4"/>
<path fill-rule="evenodd" d="M584.8,483.2H630v2.1H584.8v-2.1Z" class="g1_4"/>
<path fill-rule="evenodd" d="M652.7,483.2h67.8v2.1H652.7v-2.1Z" class="g1_4"/>
<path fill-rule="evenodd" d="M876.5,362.4h2.2v81.9h-2.2V362.4Z" class="g1_4"/>
<path fill-rule="evenodd" d="M899.1,362.4h2.3v40.9h-2.3V362.4Z" class="g1_4"/>
<path fill-rule="evenodd" d="M743.1,483.2h113v2.1h-113v-2.1Z" class="g1_4"/>
<path fill-rule="evenodd" d="M231.4,403.4h2.2v61.5h-2.2V403.4Z" class="g1_4"/>
<path fill-rule="evenodd" d="M233.6,503.7h42.2v2.2H233.6v-2.2Z" class="g1_4"/>
<path fill-rule="evenodd" d="M358,444.4h2.2v20.5H358V444.4Z" class="g1_4"/>
<path fill-rule="evenodd" d="M401.7,462.6h2.2v22.7h-2.2V462.6Z" class="g1_4"/>
<path fill-rule="evenodd" d="M297,503.7h63.2v2.2H297v-2.2Z" class="g1_4"/>
<path fill-rule="evenodd" d="M446.9,442.2h2.2v22.7h-2.2V442.2Z" class="g1_4"/>
<path fill-rule="evenodd" d="M404,503.7h22.5v2.2H404v-2.2Z" class="g1_4"/>
<path fill-rule="evenodd" d="M514.7,444.4H517v20.5h-2.3V444.4Z" class="g1_4"/>
<path fill-rule="evenodd" d="M449.2,503.7H517v2.2H449.2v-2.2Z" class="g1_4"/>
<path fill-rule="evenodd" d="M763.4,300.9h2.3v61.5h-2.3V300.9Z" class="g1_4"/>
<path fill-rule="evenodd" d="M786.1,362.4h2.2V464.9h-2.2V362.4Z" class="g1_4"/>
<path fill-rule="evenodd" d="M808.7,321.3h2.2v123h-2.2v-123Z" class="g1_4"/>
<path fill-rule="evenodd" d="M831.3,444.4h2.2v40.9h-2.2V444.4Z" class="g1_4"/>
<path fill-rule="evenodd" d="M562.2,503.7H720.5v2.2H562.2v-2.2Z" class="g1_4"/>
<path fill-rule="evenodd" d="M899.1,464.9h2.3v20.4h-2.3V464.9Z" class="g1_4"/>
<path fill-rule="evenodd" d="M833.5,503.7h45.2v2.2H833.5v-2.2Z" class="g1_4"/>
<path fill-rule="evenodd" d="M921.7,444.4H924v20.5h-2.3V444.4Z" class="g1_4"/>
<path fill-rule="evenodd" d="M252.5,382.9h2.2v82h-2.2v-82Z" class="g1_4"/>
<path fill-rule="evenodd" d="M315.8,464.9H318v20.4h-2.2V464.9Z" class="g1_4"/>
<path fill-rule="evenodd" d="M254.7,524.2h21.1v2.2H254.7v-2.2Z" class="g1_4"/>
<path fill-rule="evenodd" d="M318,524.2h42.2v2.2H318v-2.2Z" class="g1_4"/>
<path fill-rule="evenodd" d="M449.2,524.2h45.2v2.2H449.2v-2.2Z" class="g1_4"/>
<path fill-rule="evenodd" d="M605.2,360.1h2.2v84.2h-2.2V360.1Z" class="g1_4"/>
<path fill-rule="evenodd" d="M627.8,462.6H630v22.7h-2.2V462.6Z" class="g1_4"/>
<path fill-rule="evenodd" d="M650.4,464.9h2.2v41h-2.2v-41Z" class="g1_4"/>
<path fill-rule="evenodd" d="M673,444.4h2.2v40.9H673V444.4Z" class="g1_4"/>
<path fill-rule="evenodd" d="M517,524.2h67.8v2.2H517v-2.2Z" class="g1_4"/>
<path fill-rule="evenodd" d="M695.6,401.2h2.3v43.1h-2.3V401.2Z" class="g1_4"/>
<path fill-rule="evenodd" d="M718.2,421.7h2.3v63.6h-2.3V421.7Z" class="g1_4"/>
<path fill-rule="evenodd" d="M675.3,524.2h22.6v2.2H675.3v-2.2Z" class="g1_4"/>
<path fill-rule="evenodd" d="M720.5,524.2h22.6v2.2H720.5v-2.2Z" class="g1_4"/>
<path fill-rule="evenodd" d="M876.5,464.9h2.2v41h-2.2v-41Z" class="g1_4"/>
<path fill-rule="evenodd" d="M833.5,524.2h22.6v2.2H833.5v-2.2Z" class="g1_4"/>
<path fill-rule="evenodd" d="M273.6,444.4h2.2v61.5h-2.2V444.4Z" class="g1_4"/>
<path fill-rule="evenodd" d="M275.8,544.7h21.1v2.2H275.8v-2.2Z" class="g1_4"/>
<path fill-rule="evenodd" d="M318,544.7h21.1v2.2H318v-2.2Z" class="g1_4"/>
<path fill-rule="evenodd" d="M424.3,483.2h2.2v22.7h-2.2V483.2Z" class="g1_4"/>
<path fill-rule="evenodd" d="M381.4,544.7H404v2.2H381.4v-2.2Z" class="g1_4"/>
<path fill-rule="evenodd" d="M469.5,464.9h2.3v20.4h-2.3V464.9Z" class="g1_4"/>
<path fill-rule="evenodd" d="M492.1,462.6h2.3v22.7h-2.3V462.6Z" class="g1_4"/>
<path fill-rule="evenodd" d="M426.6,544.7h45.2v2.2H426.6v-2.2Z" class="g1_4"/>
<path fill-rule="evenodd" d="M582.6,444.4h2.2v40.9h-2.2V444.4Z" class="g1_4"/>
<path fill-rule="evenodd" d="M494.4,544.7h90.4v2.2H494.4v-2.2Z" class="g1_4"/>
<path fill-rule="evenodd" d="M607.5,544.7H630v2.2H607.5v-2.2Z" class="g1_4"/>
<path fill-rule="evenodd" d="M675.3,544.7h22.6v2.2H675.3v-2.2Z" class="g1_4"/>
<path fill-rule="evenodd" d="M853.9,300.9h2.2V485.3h-2.2V300.9Z" class="g1_4"/>
<path fill-rule="evenodd" d="M336.9,444.4h2.2v40.9h-2.2V444.4Z" class="g1_4"/>
<path fill-rule="evenodd" d="M297,565.2h21v2.2H297v-2.2Z" class="g1_4"/>
<path fill-rule="evenodd" d="M446.9,485.4h2.2v41h-2.2v-41Z" class="g1_4"/>
<path fill-rule="evenodd" d="M404,565.2h22.5v2.2H404v-2.2Z" class="g1_4"/>
<path fill-rule="evenodd" d="M449.2,565.2h113v2.2h-113v-2.2Z" class="g1_4"/>
<path fill-rule="evenodd" d="M607.5,565.2H630v2.2H607.5v-2.2Z" class="g1_4"/>
<path fill-rule="evenodd" d="M695.6,505.9h2.3v20.5h-2.3V505.9Z" class="g1_4"/>
<path fill-rule="evenodd" d="M740.9,444.4h2.2v82h-2.2v-82Z" class="g1_4"/>
<path fill-rule="evenodd" d="M652.7,565.2h22.6v2.2H652.7v-2.2Z" class="g1_4"/>
<path fill-rule="evenodd" d="M743.1,565.2h22.6v2.2H743.1v-2.2Z" class="g1_4"/>
<path fill-rule="evenodd" d="M831.3,503.7h2.2v22.7h-2.2V503.7Z" class="g1_4"/>
<path fill-rule="evenodd" d="M788.3,565.2h22.6v2.2H788.3v-2.2Z" class="g1_4"/>
<path fill-rule="evenodd" d="M315.8,524.2H318v22.7h-2.2V524.2Z" class="g1_4"/>
<path fill-rule="evenodd" d="M318,585.7h21.1v2.2H318v-2.2Z" class="g1_4"/>
<path fill-rule="evenodd" d="M360.3,585.7h21v2.2h-21v-2.2Z" class="g1_4"/>
<path fill-rule="evenodd" d="M560,444.4h2.2v82H560v-82Z" class="g1_4"/>
<path fill-rule="evenodd" d="M627.8,524.9H630v22h-2.2v-22Z" class="g1_4"/>
<path fill-rule="evenodd" d="M426.6,585.7H697.9v2.2H426.6v-2.2Z" class="g1_4"/>
<path fill-rule="evenodd" d="M808.7,485.4h2.2v61.5h-2.2V485.4Z" class="g1_4"/>
<path fill-rule="evenodd" d="M379.1,464.9h2.2V566.6h-2.2V464.9Z" class="g1_4"/>
<path fill-rule="evenodd" d="M339.1,606.2h21.1v2.2H339.1v-2.2Z" class="g1_4"/>
<path fill-rule="evenodd" d="M469.5,526.4h2.3v20.5h-2.3V526.4Z" class="g1_4"/>
<path fill-rule="evenodd" d="M426.6,606.2h22.6v2.2H426.6v-2.2Z" class="g1_4"/>
<path fill-rule="evenodd" d="M673,524.2h2.2v43.2H673V524.2Z" class="g1_4"/>
<path fill-rule="evenodd" d="M471.8,606.2H652.6v2.2H471.8v-2.2Z" class="g1_4"/>
<path fill-rule="evenodd" d="M740.9,565.2h2.2v22.7h-2.2V565.2Z" class="g1_4"/>
<path fill-rule="evenodd" d="M675.3,606.2h45.2v2.2H675.3v-2.2Z" class="g1_4"/>
<path fill-rule="evenodd" d="M786.1,485.4h2.2v82h-2.2v-82Z" class="g1_4"/>
<path fill-rule="evenodd" d="M743.1,606.2h22.6v2.2H743.1v-2.2Z" class="g1_4"/>
<path fill-rule="evenodd" d="M358,485.4h2.2V587.9H358V485.4Z" class="g1_4"/>
<path fill-rule="evenodd" d="M360.3,626.7h21v2.2h-21v-2.2Z" class="g1_4"/>
<path fill-rule="evenodd" d="M446.9,546.9h2.2v20.5h-2.2V546.9Z" class="g1_4"/>
<path fill-rule="evenodd" d="M492.1,526.4h2.3v20.5h-2.3V526.4Z" class="g1_4"/>
<path fill-rule="evenodd" d="M404,626.7h22.5v2.2H404v-2.2Z" class="g1_4"/>
<path fill-rule="evenodd" d="M514.7,485.4H517v41h-2.3v-41Z" class="g1_4"/>
<path fill-rule="evenodd" d="M582.6,526.4h2.2v40.2h-2.2V526.4Z" class="g1_4"/>
<path fill-rule="evenodd" d="M494.4,626.7h67.8v2.2H494.4v-2.2Z" class="g1_4"/>
<path fill-rule="evenodd" d="M650.4,524.9h2.2v42.5h-2.2V524.9Z" class="g1_4"/>
<path fill-rule="evenodd" d="M695.6,546.9h2.3v41h-2.3v-41Z" class="g1_4"/>
<path fill-rule="evenodd" d="M584.8,626.7h67.8v2.2H584.8v-2.2Z" class="g1_4"/>
<path fill-rule="evenodd" d="M763.4,485.4h2.3v82h-2.3v-82Z" class="g1_4"/>
<path fill-rule="evenodd" d="M697.9,626.7h45.2v2.2H697.9v-2.2Z" class="g1_4"/>
<path fill-rule="evenodd" d="M424.3,544.7h2.2v63.7h-2.2V544.7Z" class="g1_4"/>
<path fill-rule="evenodd" d="M381.4,647.2h45.1v2.2H381.4v-2.2Z" class="g1_4"/>
<path fill-rule="evenodd" d="M537.4,403.4h2.2v40.9h-2.2V403.4Z" class="g1_4"/>
<path fill-rule="evenodd" d="M560,567.4h2.2v20.5H560V567.4Z" class="g1_4"/>
<path fill-rule="evenodd" d="M494.4,647.2H517v2.2H494.4v-2.2Z" class="g1_4"/>
<path fill-rule="evenodd" d="M605.2,505.9h2.2v61.5h-2.2V505.9Z" class="g1_4"/>
<path fill-rule="evenodd" d="M627.8,567.4H630v41h-2.2v-41Z" class="g1_4"/>
<path fill-rule="evenodd" d="M562.2,647.2h22.6v2.2H562.2v-2.2Z" class="g1_4"/>
<path fill-rule="evenodd" d="M740.9,606.2h2.2v22.7h-2.2V606.2Z" class="g1_4"/>
<path fill-rule="evenodd" d="M675.3,647.2h45.2v2.2H675.3v-2.2Z" class="g1_4"/>
<path fill-rule="evenodd" d="M401.7,503.7h2.2V628.9h-2.2V503.7Z" class="g1_4"/>
<path fill-rule="evenodd" d="M514.7,608.4H517v20.5h-2.3V608.4Z" class="g1_4"/>
<path fill-rule="evenodd" d="M404,667.7h45.1v2.2H404v-2.2Z" class="g1_4"/>
<path fill-rule="evenodd" d="M582.6,626.7h2.2v22.7h-2.2V626.7Z" class="g1_4"/>
<path fill-rule="evenodd" d="M539.6,667.7h22.6v2.2H539.6v-2.2Z" class="g1_4"/>
<path fill-rule="evenodd" d="M584.8,667.7h22.6v2.2H584.8v-2.2Z" class="g1_4"/>
<path fill-rule="evenodd" d="M718.2,505.9h2.3V608.4h-2.3V505.9Z" class="g1_4"/>
<path fill-rule="evenodd" d="M424.3,628.9h2.2v20.5h-2.2V628.9Z" class="g1_4"/>
<path fill-rule="evenodd" d="M537.4,628.9h2.2v41h-2.2v-41Z" class="g1_4"/>
<path fill-rule="evenodd" d="M426.6,688.2h45.2v2.2H426.6v-2.2Z" class="g1_4"/>
<path fill-rule="evenodd" d="M560,628.9h2.2v20.5H560V628.9Z" class="g1_4"/>
<path fill-rule="evenodd" d="M539.6,688.2h22.6v2.2H539.6v-2.2Z" class="g1_4"/>
<path fill-rule="evenodd" d="M695.6,608.4h2.3v20.5h-2.3V608.4Z" class="g1_4"/>
<path fill-rule="evenodd" d="M630,688.2h45.2v2.2H630v-2.2Z" class="g1_4"/>
<path fill-rule="evenodd" d="M446.9,608.4h2.2v61.5h-2.2V608.4Z" class="g1_4"/>
<path fill-rule="evenodd" d="M449.2,708.7h45.2v2.2H449.2v-2.2Z" class="g1_4"/>
<path fill-rule="evenodd" d="M562.2,708.7h22.6v2.2H562.2v-2.2Z" class="g1_4"/>
<path fill-rule="evenodd" d="M673,587.9h2.2v61.5H673V587.9Z" class="g1_4"/>
<path fill-rule="evenodd" d="M607.5,708.7h45.1v2.2H607.5v-2.2Z" class="g1_4"/>
<path fill-rule="evenodd" d="M469.5,587.9h2.3V690.4h-2.3V587.9Z" class="g1_4"/>
<path fill-rule="evenodd" d="M471.8,729.2h22.6v2.2H471.8v-2.2Z" class="g1_4"/>
<path fill-rule="evenodd" d="M517,729.2h22.6v2.2H517v-2.2Z" class="g1_4"/>
<path fill-rule="evenodd" d="M605.2,628.9h2.2v82h-2.2v-82Z" class="g1_4"/>
<path fill-rule="evenodd" d="M562.2,729.2h22.6v2.2H562.2v-2.2Z" class="g1_4"/>
<path fill-rule="evenodd" d="M650.4,608.4h2.2v61.5h-2.2V608.4Z" class="g1_4"/>
<path fill-rule="evenodd" d="M492.1,626.7h2.3v84.2h-2.3V626.7Z" class="g1_4"/>
<path fill-rule="evenodd" d="M560,669.9h2.2v61.5H560V669.9Z" class="g1_4"/>
<path fill-rule="evenodd" d="M494.4,749.7h45.2v2.2H494.4v-2.2Z" class="g1_4"/>
<path fill-rule="evenodd" d="M582.6,667.7h2.2v43.2h-2.2V667.7Z" class="g1_4"/>
<path fill-rule="evenodd" d="M627.8,628.9H630v61.5h-2.2V628.9Z" class="g1_4"/>
<path fill-rule="evenodd" d="M562.2,749.7h45.2v2.2H562.2v-2.2Z" class="g1_4"/>
<path fill-rule="evenodd" d="M944.3,462.6h2.3v22.7h-2.3V462.6Z" class="g1_4"/>
<path fill-rule="evenodd" d="M630,749.7h22.6v2.2H630v-2.2Z" class="g1_4"/>
<path fill-rule="evenodd" d="M514.7,649.4H517v82h-2.3v-82Z" class="g1_4"/>
<path fill-rule="evenodd" d="M605.2,729.2h2.2v22.7h-2.2V729.2Z" class="g1_4"/>
<path fill-rule="evenodd" d="M517,770.2h22.6v2.2H517v-2.2Z" class="g1_4"/>
<path fill-rule="evenodd" d="M607.5,770.2H630v2.2H607.5v-2.2Z" class="g1_4"/>
<path clip-path="url(#c4_4)" fill-rule="evenodd" d="M966.9,403.4h2.3v61.5h-2.3V403.4Z" class="g1_4"/>
<path fill-rule="evenodd" d="M537.4,688.2h2.2v63.7h-2.2V688.2Z" class="g1_4"/>
<path clip-path="url(#c4_4)" fill-rule="evenodd" d="M537.4,772.4h2.2v20.5h-2.2V772.4Z" class="g1_4"/>
<path fill-rule="evenodd" d="M514.7,751.9H517v20.5h-2.3V751.9Z" class="g1_4"/>
<g clip-path="url(#c4_4)">
<path fill-rule="evenodd" d="M560,749.7h2.2v43.2H560V749.7Z" class="g1_4"/>
<path fill-rule="evenodd" d="M605.2,770.2h2.2v22.7h-2.2V770.2Z" class="g1_4"/>
</g>
<path fill-rule="evenodd" d="M492.1,731.4h2.3v20.5h-2.3V731.4Z" class="g1_4"/>
<path fill-rule="evenodd" d="M582.6,731.4h2.2v20.5h-2.2V731.4Z" class="g1_4"/>
<path fill-rule="evenodd" d="M627.8,749.7H630v22.7h-2.2V749.7Z" class="g1_4"/>
<path fill-rule="evenodd" d="M469.5,710.9h2.3v20.5h-2.3V710.9Z" class="g1_4"/>
<path fill-rule="evenodd" d="M650.4,710.9h2.2v41h-2.2v-41Z" class="g1_4"/>
<path fill-rule="evenodd" d="M446.9,690.4h2.2v20.5h-2.2V690.4Z" class="g1_4"/>
<path fill-rule="evenodd" d="M673,690.4h2.2v41H673v-41Z" class="g1_4"/>
<path fill-rule="evenodd" d="M424.3,669.9h2.2v20.5h-2.2V669.9Z" class="g1_4"/>
<path fill-rule="evenodd" d="M695.6,688.2h2.3v22.7h-2.3V688.2Z" class="g1_4"/>
<path fill-rule="evenodd" d="M401.7,649.4h2.2v20.5h-2.2V649.4Z" class="g1_4"/>
<path fill-rule="evenodd" d="M718.2,649.4h2.3v41h-2.3v-41Z" class="g1_4"/>
<path fill-rule="evenodd" d="M379.1,587.9h2.2v61.5h-2.2V587.9Z" class="g1_4"/>
<path fill-rule="evenodd" d="M740.9,647.2h2.2v22.7h-2.2V647.2Z" class="g1_4"/>
<path fill-rule="evenodd" d="M358,608.4h2.2v20.5H358V608.4Z" class="g1_4"/>
<path fill-rule="evenodd" d="M763.4,608.4h2.3v41h-2.3v-41Z" class="g1_4"/>
<path fill-rule="evenodd" d="M336.9,546.9h2.2v61.5h-2.2V546.9Z" class="g1_4"/>
<path fill-rule="evenodd" d="M786.1,606.2h2.2v22.7h-2.2V606.2Z" class="g1_4"/>
<path fill-rule="evenodd" d="M315.8,567.4H318v20.5h-2.2V567.4Z" class="g1_4"/>
<path fill-rule="evenodd" d="M808.7,567.4h2.2v41h-2.2v-41Z" class="g1_4"/>
<path fill-rule="evenodd" d="M294.7,483.2h2.2v84.2h-2.2V483.2Z" class="g1_4"/>
<path fill-rule="evenodd" d="M831.3,565.2h2.2v22.7h-2.2V565.2Z" class="g1_4"/>
<path fill-rule="evenodd" d="M273.6,526.4h2.2v20.5h-2.2V526.4Z" class="g1_4"/>
<path fill-rule="evenodd" d="M853.9,526.4h2.2v41h-2.2v-41Z" class="g1_4"/>
<path fill-rule="evenodd" d="M252.5,505.9h2.2v20.5h-2.2V505.9Z" class="g1_4"/>
<path fill-rule="evenodd" d="M876.5,524.2h2.2v22.7h-2.2V524.2Z" class="g1_4"/>
<path fill-rule="evenodd" d="M231.4,485.4h2.2v20.5h-2.2V485.4Z" class="g1_4"/>
<path fill-rule="evenodd" d="M899.1,503.7h2.3v22.7h-2.3V503.7Z" class="g1_4"/>
<path fill-rule="evenodd" d="M210.3,442.2h2.2v43.1h-2.2V442.2Z" class="g1_4"/>
<path fill-rule="evenodd" d="M921.7,485.4H924v20.5h-2.3V485.4Z" class="g1_4"/>
<path fill-rule="evenodd" d="M189.2,444.4h2.2v20.5h-2.2V444.4Z" class="g1_4"/>
<path fill-rule="evenodd" d="M944.3,749.7h2.3v22.7h-2.3V749.7Z" class="g1_4"/>
<g clip-path="url(#c4_4)">
<path fill-rule="evenodd" d="M168.1,380.7h2.2v63.6h-2.2V380.7Z" class="g1_4"/>
<path fill-rule="evenodd" d="M966.9,751.9h2.3v20.5h-2.3V751.9Z" class="g1_4"/>
<path fill-rule="evenodd" d="M539.6,32.1h67.8v2.2H539.6V32.1Z" class="g1_4"/>
</g>
<path fill-rule="evenodd" d="M607.5,52.6H630v2.2H607.5V52.6Z" class="g1_4"/>
<path fill-rule="evenodd" d="M584.8,73.1h67.8v2.2H584.8V73.1Z" class="g1_4"/>
<path fill-rule="evenodd" d="M607.5,93.6h67.8v2.2H607.5V93.6Z" class="g1_4"/>
<path fill-rule="evenodd" d="M675.3,114.1h22.6v2.2H675.3v-2.2Z" class="g1_4"/>
<path fill-rule="evenodd" d="M652.7,134.6h67.8v2.2H652.7v-2.2Z" class="g1_4"/>
<path fill-rule="evenodd" d="M720.5,155.1h22.6v2.2H720.5v-2.2Z" class="g1_4"/>
<path fill-rule="evenodd" d="M743.1,175.6h22.6v2.2H743.1v-2.2Z" class="g1_4"/>
<path fill-rule="evenodd" d="M720.5,196.1h67.8v2.2H720.5v-2.2Z" class="g1_4"/>
<path fill-rule="evenodd" d="M788.3,216.6h22.6v2.2H788.3v-2.2Z" class="g1_4"/>
<path fill-rule="evenodd" d="M810.9,237.1h22.6v2.2H810.9v-2.2Z" class="g1_4"/>
<path fill-rule="evenodd" d="M833.5,257.6h22.6v2.2H833.5v-2.2Z" class="g1_4"/>
<path fill-rule="evenodd" d="M856.1,278.1h22.6v2.2H856.1v-2.2Z" class="g1_4"/>
<path fill-rule="evenodd" d="M878.8,298.6h22.6v2.2H878.8v-2.2Z" class="g1_4"/>
<path fill-rule="evenodd" d="M901.4,319.1H924v2.2H901.4v-2.2Z" class="g1_4"/>
<path fill-rule="evenodd" d="M878.8,339.7h67.8v2.1H878.8v-2.1Z" class="g1_4"/>
<path clip-path="url(#c4_4)" fill-rule="evenodd" d="M946.6,360.1h22.6v2.3H946.6v-2.3Z" class="g1_4"/>
<path fill-rule="evenodd" d="M924,380.7h22.6v2.1H924v-2.1Z" class="g1_4"/>
<path clip-path="url(#c4_4)" fill-rule="evenodd" d="M901.4,401.2h67.8v2.1H901.4v-2.1Z" class="g1_4"/>
<path fill-rule="evenodd" d="M924,421.7h22.6v2.1H924v-2.1Z" class="g1_4"/>
<path fill-rule="evenodd" d="M878.8,442.2h67.8v2.1H878.8v-2.1Z" class="g1_4"/>
<path clip-path="url(#c4_4)" fill-rule="evenodd" d="M946.6,462.6h22.6v2.3H946.6v-2.3Z" class="g1_4"/>
<path fill-rule="evenodd" d="M901.4,483.2h45.2v2.1H901.4v-2.1Z" class="g1_4"/>
<path fill-rule="evenodd" d="M901.4,503.7H924v2.2H901.4v-2.2Z" class="g1_4"/>
<path fill-rule="evenodd" d="M878.8,524.2h22.6v2.2H878.8v-2.2Z" class="g1_4"/>
<path fill-rule="evenodd" d="M810.9,544.7h67.8v2.2H810.9v-2.2Z" class="g1_4"/>
<path fill-rule="evenodd" d="M833.5,565.2h22.6v2.2H833.5v-2.2Z" class="g1_4"/>
<path fill-rule="evenodd" d="M720.5,585.7h113v2.2h-113v-2.2Z" class="g1_4"/>
<path fill-rule="evenodd" d="M788.3,606.2h22.6v2.2H788.3v-2.2Z" class="g1_4"/>
<path fill-rule="evenodd" d="M765.7,626.7h22.6v2.2H765.7v-2.2Z" class="g1_4"/>
<path fill-rule="evenodd" d="M743.1,647.2h22.6v2.2H743.1v-2.2Z" class="g1_4"/>
<path fill-rule="evenodd" d="M652.7,667.7h90.4v2.2H652.7v-2.2Z" class="g1_4"/>
<path fill-rule="evenodd" d="M697.9,688.2h22.6v2.2H697.9v-2.2Z" class="g1_4"/>
<path fill-rule="evenodd" d="M675.3,708.7h22.6v2.2H675.3v-2.2Z" class="g1_4"/>
<path fill-rule="evenodd" d="M607.5,729.2h67.8v2.2H607.5v-2.2Z" class="g1_4"/>
<g clip-path="url(#c4_4)">
<path fill-rule="evenodd" d="M946.6,749.7h22.6v2.2H946.6v-2.2Z" class="g1_4"/>
<path fill-rule="evenodd" d="M946.6,770.2h22.6v2.2H946.6v-2.2Z" class="g1_4"/>
<path fill-rule="evenodd" d="M539.6,790.7h67.8v2.2H539.6v-2.2Z" class="g1_4"/>
</g>
<path d="M75.8,86.3H194.5" class="ga_4"/>
</svg>