<?xml version="1.0" encoding="UTF-8"?>
<!DOCTYPE svg PUBLIC "-//W3C//DTD SVG 1.1//EN" "http://www.w3.org/Graphics/SVG/1.1/DTD/svg11.dtd">
<svg xmlns="http://www.w3.org/2000/svg" version="1.1" width="109px" height="109px" style="shape-rendering:geometricPrecision; text-rendering:geometricPrecision; image-rendering:optimizeQuality; fill-rule:evenodd; clip-rule:evenodd" xmlns:xlink="http://www.w3.org/1999/xlink">
<g><path style="opacity:1" fill="#fefffe" d="M -0.5,-0.5 C 35.8333,-0.5 72.1667,-0.5 108.5,-0.5C 108.5,35.8333 108.5,72.1667 108.5,108.5C 72.1667,108.5 35.8333,108.5 -0.5,108.5C -0.5,72.1667 -0.5,35.8333 -0.5,-0.5 Z"/></g>
<g><path style="opacity:1" fill="#000000" d="M 13.5,8.5 C 26.8126,21.4787 40.1459,34.4787 53.5,47.5C 66.6527,34.8475 79.6527,22.0141 92.5,9C 95.2652,9.72025 97.5985,11.3869 99.5,14C 86.3192,27.014 73.3192,40.1806 60.5,53.5C 73.3192,66.8194 86.3192,79.986 99.5,93C 97.5985,95.6131 95.2652,97.2797 92.5,98C 79.6667,85.1667 66.8333,72.3333 54,59.5C 40.6667,72.8333 27.3333,86.1667 14,99.5C 11.3869,97.5985 9.72025,95.2652 9,92.5C 22.0141,79.6527 34.8475,66.6527 47.5,53.5C 34.6808,40.1806 21.6808,27.014 8.5,14C 10.3734,12.2962 12.0401,10.4628 13.5,8.5 Z"/></g>
</svg>
