<?xml version="1.0" encoding="UTF-8"?>
<!DOCTYPE svg PUBLIC "-//W3C//DTD SVG 1.1//EN" "http://www.w3.org/Graphics/SVG/1.1/DTD/svg11.dtd">
<svg xmlns="http://www.w3.org/2000/svg" version="1.1" width="150px" height="131px" style="shape-rendering:geometricPrecision; text-rendering:geometricPrecision; image-rendering:optimizeQuality; fill-rule:evenodd; clip-rule:evenodd" xmlns:xlink="http://www.w3.org/1999/xlink">
<g><path style="opacity:1" fill="#fefffe" d="M -0.5,-0.5 C 49.5,-0.5 99.5,-0.5 149.5,-0.5C 149.5,43.1667 149.5,86.8333 149.5,130.5C 99.5,130.5 49.5,130.5 -0.5,130.5C -0.5,86.8333 -0.5,43.1667 -0.5,-0.5 Z"/></g>
<g><path style="opacity:1" fill="#20aaff" d="M 22.5,18.5 C 24.1042,19.287 24.7709,20.6203 24.5,22.5C 26.099,22.2322 27.4324,22.5655 28.5,23.5C 26.3146,23.7036 24.3146,24.3702 22.5,25.5C 22.5,23.1667 22.5,20.8333 22.5,18.5 Z"/></g>
<g><path style="opacity:1" fill="#25aeff" d="M 35.5,25.5 C 33.8561,25.2865 32.3561,25.6198 31,26.5C 29.583,25.9221 28.7496,24.9221 28.5,23.5C 30.9386,24.8998 32.7719,24.2331 34,21.5C 34.7914,22.745 35.2914,24.0783 35.5,25.5 Z"/></g>
<g><path style="opacity:1" fill="#224cfa" d="M 22.5,18.5 C 22.5,20.8333 22.5,23.1667 22.5,25.5C 21.7659,26.7079 21.4326,28.0413 21.5,29.5C 16.4966,27.6115 12.1633,28.6115 8.5,32.5C 8.16667,32.1667 7.83333,31.8333 7.5,31.5C 9.41501,29.9288 10.415,27.9288 10.5,25.5C 13.555,24.5704 16.555,24.2371 19.5,24.5C 20.8007,22.556 21.8007,20.556 22.5,18.5 Z"/></g>
<g><path style="opacity:1" fill="#051df9" d="M 28.5,23.5 C 28.7496,24.9221 29.583,25.9221 31,26.5C 32.3561,25.6198 33.8561,25.2865 35.5,25.5C 37.0746,27.1137 37.7413,29.1137 37.5,31.5C 36.7326,30.828 36.0659,29.9947 35.5,29C 31.6856,27.0859 27.6856,26.4192 23.5,27C 22.9341,27.9947 22.2674,28.828 21.5,29.5C 21.4326,28.0413 21.7659,26.7079 22.5,25.5C 24.3146,24.3702 26.3146,23.7036 28.5,23.5 Z"/></g>
<g><path style="opacity:1" fill="#0d2cfa" d="M 68.5,35.5 C 64.3799,36.8772 61.7133,35.3772 60.5,31C 61.7502,28.2124 62.7502,25.3791 63.5,22.5C 62.1266,22.3433 60.7932,22.51 59.5,23C 62.3423,25.4049 62.0089,27.2382 58.5,28.5C 57.6121,31.9867 55.2788,33.3201 51.5,32.5C 50.4168,32.4606 49.4168,32.1272 48.5,31.5C 45.4579,34.043 42.6246,33.7097 40,30.5C 39.8455,27.4754 38.3455,25.8087 35.5,25.5C 35.2914,24.0783 34.7914,22.745 34,21.5C 32.7719,24.2331 30.9386,24.8998 28.5,23.5C 27.4324,22.5655 26.099,22.2322 24.5,22.5C 24.7709,20.6203 24.1042,19.287 22.5,18.5C 22.2969,16.9557 21.6302,15.6223 20.5,14.5C 21,14.1667 21.5,13.8333 22,13.5C 24.1667,16 26.3333,18.5 28.5,21C 30.8087,21.7562 32.8087,21.2562 34.5,19.5C 35.966,21.8209 37.7993,23.8209 40,25.5C 40.4828,26.448 40.6495,27.448 40.5,28.5C 45.8862,29.9946 51.2196,29.828 56.5,28C 58.1458,26.4452 58.4791,24.7785 57.5,23C 60.9368,21.1934 64.1034,19.0267 67,16.5C 66.9135,12.982 67.0802,9.64869 67.5,6.5C 69.1461,7.77863 70.3128,9.4453 71,11.5C 72.0623,13.2078 73.229,13.8745 74.5,13.5C 72.0598,15.1093 70.8931,17.4426 71,20.5C 64.8001,24.7441 63.9668,29.7441 68.5,35.5 Z"/></g>
<g><path style="opacity:1" fill="#1f9bff" d="M 68.5,19.5 C 67.9517,22.0838 66.285,23.0838 63.5,22.5C 64.6053,20.7769 66.2719,19.7769 68.5,19.5 Z"/></g>
<g><path style="opacity:1" fill="#1fa4ff" d="M 68.5,19.5 C 68.4592,15.7566 69.1259,15.5899 70.5,19C 69.9056,19.4643 69.2389,19.631 68.5,19.5 Z"/></g>
<g><path style="opacity:1" fill="#0426f6" d="M 37.5,31.5 C 38.8241,32.9346 40.4908,33.9346 42.5,34.5C 42.7611,36.5952 43.0945,38.5952 43.5,40.5C 42.8106,41.7736 41.9772,41.7736 41,40.5C 40.3828,39.5509 40.5494,38.7175 41.5,38C 39.7468,36.0015 38.4135,33.8348 37.5,31.5 Z"/></g>
<g><path style="opacity:1" fill="#051ff9" d="M 65.5,49.5 C 63.6163,47.2307 62.283,44.564 61.5,41.5C 58.0436,40.8448 54.8769,39.5115 52,37.5C 49.0504,38.189 46.2171,39.189 43.5,40.5C 45.5068,33.8337 49.1735,32.8337 54.5,37.5C 56.8511,35.7711 59.5178,35.1044 62.5,35.5C 62.5,36.5 62.5,37.5 62.5,38.5C 63.5,38.5 64.5,38.5 65.5,38.5C 65.914,42.2822 65.914,45.9489 65.5,49.5 Z"/></g>
<g><path style="opacity:1" fill="#2cb0ff" d="M 63.5,22.5 C 62.7502,25.3791 61.7502,28.2124 60.5,31C 61.7133,35.3772 64.3799,36.8772 68.5,35.5C 68.5,35.8333 68.5,36.1667 68.5,36.5C 67.7222,37.1556 67.0556,37.9889 66.5,39C 67.0779,40.8114 67.5779,42.6447 68,44.5C 68.7096,45.9733 69.8762,46.6399 71.5,46.5C 71.4701,47.4972 71.9701,48.1639 73,48.5C 74.4397,47.8524 75.9397,47.5191 77.5,47.5C 76.9618,50.1889 76.2951,52.8556 75.5,55.5C 76.9358,56.9337 78.6025,58.1004 80.5,59C 79.552,59.4828 78.552,59.6495 77.5,59.5C 76.9246,63.2582 75.5912,66.7582 73.5,70C 73.7591,71.2613 74.4258,72.2613 75.5,73C 74.2309,75.1385 74.2309,77.3052 75.5,79.5C 77.1315,80.2974 78.6315,81.2974 80,82.5C 80.8732,82.2645 81.7065,81.9312 82.5,81.5C 83.487,84.7683 83.8204,88.1016 83.5,91.5C 85.9856,92.1291 88.3189,93.1291 90.5,94.5C 92.374,94.6102 93.874,93.9436 95,92.5C 98.4198,96.2614 101.753,96.2614 105,92.5C 105.861,95.8451 107.695,96.8451 110.5,95.5C 111.338,95.8417 111.672,96.5084 111.5,97.5C 111.329,98.8793 111.162,100.546 111,102.5C 109.857,99.2986 107.524,97.2986 104,96.5C 102.674,96.7549 101.674,97.4216 101,98.5C 99.3232,97.4841 97.6565,96.4841 96,95.5C 94.2341,96.2335 92.4008,96.5668 90.5,96.5C 91.0397,99.6865 90.0397,102.187 87.5,104C 87.7591,105.261 88.4258,106.261 89.5,107C 87.8807,107.236 86.8807,108.069 86.5,109.5C 84.4352,109.517 82.4352,109.85 80.5,110.5C 80.3691,109.624 80.7025,108.957 81.5,108.5C 83.0589,107.926 84.5589,107.26 86,106.5C 86.537,103.907 87.3704,101.407 88.5,99C 87.5297,94.1607 84.8631,92.6607 80.5,94.5C 80.5,93.8333 80.5,93.1667 80.5,92.5C 81.3764,92.6309 82.0431,92.2975 82.5,91.5C 82.2735,88.7756 81.9402,86.1089 81.5,83.5C 79.4305,83.5514 77.5971,82.8847 76,81.5C 74.1084,81.7769 72.7751,82.7769 72,84.5C 70.6012,83.7734 69.1012,83.2734 67.5,83C 70.2745,82.9939 72.2745,81.8272 73.5,79.5C 72.3921,77.4822 72.2254,75.4822 73,73.5C 71.3484,72.6006 69.8484,71.6006 68.5,70.5C 69.5,70.5 70.5,70.5 71.5,70.5C 71.3433,69.1266 71.51,67.7932 72,66.5C 75.9003,63.8167 76.4003,60.6501 73.5,57C 74.4231,54.9592 74.7564,52.7925 74.5,50.5C 72.0876,50.756 70.4209,49.756 69.5,47.5C 68.1401,48.1799 66.8068,48.8466 65.5,49.5C 65.914,45.9489 65.914,42.2822 65.5,38.5C 64.5,38.5 63.5,38.5 62.5,38.5C 62.5,37.5 62.5,36.5 62.5,35.5C 59.5178,35.1044 56.8511,35.7711 54.5,37.5C 49.1735,32.8337 45.5068,33.8337 43.5,40.5C 43.0945,38.5952 42.7611,36.5952 42.5,34.5C 40.4908,33.9346 38.8241,32.9346 37.5,31.5C 37.7413,29.1137 37.0746,27.1137 35.5,25.5C 38.3455,25.8087 39.8455,27.4754 40,30.5C 42.6246,33.7097 45.4579,34.043 48.5,31.5C 49.4168,32.1272 50.4168,32.4606 51.5,32.5C 51.811,33.4778 52.4777,34.1445 53.5,34.5C 56.1473,34.0713 58.1473,32.7379 59.5,30.5C 59.1373,29.8165 58.8039,29.1499 58.5,28.5C 62.0089,27.2382 62.3423,25.4049 59.5,23C 60.7932,22.51 62.1266,22.3433 63.5,22.5 Z"/></g>
<g><path style="opacity:1" fill="#0659ff" d="M 58.5,28.5 C 58.8039,29.1499 59.1373,29.8165 59.5,30.5C 58.1473,32.7379 56.1473,34.0713 53.5,34.5C 52.4777,34.1445 51.811,33.4778 51.5,32.5C 55.2788,33.3201 57.6121,31.9867 58.5,28.5 Z"/></g>
<g><path style="opacity:1" fill="#0922fb" d="M 68.5,36.5 C 69.0182,42.3301 72.3516,44.9968 78.5,44.5C 79.8492,44.1543 81.1825,43.821 82.5,43.5C 82.1961,44.1499 81.8627,44.8165 81.5,45.5C 78.2317,46.487 74.8984,46.8204 71.5,46.5C 69.8762,46.6399 68.7096,45.9733 68,44.5C 67.5779,42.6447 67.0779,40.8114 66.5,39C 67.0556,37.9889 67.7222,37.1556 68.5,36.5 Z"/></g>
<g><path style="opacity:1" fill="#1559fd" d="M 82.5,43.5 C 84.7813,45.0322 84.7813,46.3656 82.5,47.5C 80.8333,47.5 79.1667,47.5 77.5,47.5C 75.9397,47.5191 74.4397,47.8524 73,48.5C 71.9701,48.1639 71.4701,47.4972 71.5,46.5C 74.8984,46.8204 78.2317,46.487 81.5,45.5C 81.8627,44.8165 82.1961,44.1499 82.5,43.5 Z"/></g>
<g><path style="opacity:1" fill="#0721fc" d="M 68.5,70.5 C 68.5041,68.1579 69.3375,66.1579 71,64.5C 71.6667,61.1667 71.6667,57.8333 71,54.5C 68.7355,53.1495 66.9022,51.4828 65.5,49.5C 66.8068,48.8466 68.1401,48.1799 69.5,47.5C 70.4209,49.756 72.0876,50.756 74.5,50.5C 74.7564,52.7925 74.4231,54.9592 73.5,57C 76.4003,60.6501 75.9003,63.8167 72,66.5C 71.51,67.7932 71.3433,69.1266 71.5,70.5C 70.5,70.5 69.5,70.5 68.5,70.5 Z"/></g>
<g><path style="opacity:1" fill="#0b29f9" d="M 68.5,70.5 C 69.8484,71.6006 71.3484,72.6006 73,73.5C 72.2254,75.4822 72.3921,77.4822 73.5,79.5C 72.2745,81.8272 70.2745,82.9939 67.5,83C 69.1012,83.2734 70.6012,83.7734 72,84.5C 72.7751,82.7769 74.1084,81.7769 76,81.5C 77.5971,82.8847 79.4305,83.5514 81.5,83.5C 81.9402,86.1089 82.2735,88.7756 82.5,91.5C 82.0431,92.2975 81.3764,92.6309 80.5,92.5C 79.4248,87.3482 76.0915,85.0148 70.5,85.5C 68.8129,85.7605 67.3129,86.4272 66,87.5C 65.3333,85.8333 65.3333,84.1667 66,82.5C 70.9161,79.2992 71.4161,75.6325 67.5,71.5C 67.6236,70.8933 67.9569,70.56 68.5,70.5 Z"/></g>
<g><path style="opacity:1" fill="#0925fa" d="M 77.5,47.5 C 79.1667,47.5 80.8333,47.5 82.5,47.5C 80.5833,49.2622 79.25,51.4288 78.5,54C 82.3156,57.9301 82.149,61.7634 78,65.5C 77.3333,68.8333 77.3333,72.1667 78,75.5C 80.3333,77.1667 82.6667,78.8333 85,80.5C 85.7982,83.5428 86.9648,86.3761 88.5,89C 91.7683,90.1367 95.1017,90.97 98.5,91.5C 101.597,91.617 104.264,90.617 106.5,88.5C 107.835,90.8091 109.168,93.1424 110.5,95.5C 107.695,96.8451 105.861,95.8451 105,92.5C 101.753,96.2614 98.4198,96.2614 95,92.5C 93.874,93.9436 92.374,94.6102 90.5,94.5C 88.3189,93.1291 85.9856,92.1291 83.5,91.5C 83.8204,88.1016 83.487,84.7683 82.5,81.5C 81.7065,81.9312 80.8732,82.2645 80,82.5C 78.6315,81.2974 77.1315,80.2974 75.5,79.5C 74.2309,77.3052 74.2309,75.1385 75.5,73C 74.4258,72.2613 73.7591,71.2613 73.5,70C 75.5912,66.7582 76.9246,63.2582 77.5,59.5C 78.552,59.6495 79.552,59.4828 80.5,59C 78.6025,58.1004 76.9358,56.9337 75.5,55.5C 76.2951,52.8556 76.9618,50.1889 77.5,47.5 Z"/></g>
<g><path style="opacity:1" fill="#1135f7" d="M 138.5,101.5 C 138.565,101.062 138.399,100.728 138,100.5C 135.357,103.948 132.523,104.281 129.5,101.5C 133.932,101.905 137.765,100.571 141,97.5C 141.279,99.4122 140.446,100.746 138.5,101.5 Z"/></g>
<g><path style="opacity:1" fill="#2d7dfc" d="M 138.5,101.5 C 138.414,102.496 138.748,103.329 139.5,104C 136.784,105.212 134.117,105.379 131.5,104.5C 130.352,103.836 129.019,103.669 127.5,104C 128.066,103.005 128.733,102.172 129.5,101.5C 132.523,104.281 135.357,103.948 138,100.5C 138.399,100.728 138.565,101.062 138.5,101.5 Z"/></g>
<g><path style="opacity:1" fill="#0e2ef8" d="M 111.5,97.5 C 115.085,101.757 119.751,103.59 125.5,103C 126.49,100.79 127.824,100.29 129.5,101.5C 128.733,102.172 128.066,103.005 127.5,104C 129.019,103.669 130.352,103.836 131.5,104.5C 128.992,106.401 127.658,109.068 127.5,112.5C 127.529,114.029 128.196,115.196 129.5,116C 125.954,116.793 124.12,115.293 124,111.5C 120.764,107.978 117.264,107.645 113.5,110.5C 112.805,108.022 111.305,106.022 109,104.5C 108.517,103.552 108.351,102.552 108.5,101.5C 103.664,100.266 98.8308,100.266 94,101.5C 93.0546,101.905 92.3879,102.572 92,103.5C 92.5922,107.898 90.7589,109.898 86.5,109.5C 86.8807,108.069 87.8807,107.236 89.5,107C 88.4258,106.261 87.7591,105.261 87.5,104C 90.0397,102.187 91.0397,99.6865 90.5,96.5C 92.4008,96.5668 94.2341,96.2335 96,95.5C 97.6565,96.4841 99.3232,97.4841 101,98.5C 101.674,97.4216 102.674,96.7549 104,96.5C 107.524,97.2986 109.857,99.2986 111,102.5C 111.162,100.546 111.329,98.8793 111.5,97.5 Z"/></g>
<g><path style="opacity:1" fill="#0727fa" d="M 80.5,110.5 C 78.4753,112.726 78.3086,115.059 80,117.5C 80.21,115.942 80.71,114.609 81.5,113.5C 82.0592,117.051 82.0592,120.384 81.5,123.5C 79.9899,121.678 78.6566,119.678 77.5,117.5C 76.3966,117.002 75.3966,116.669 74.5,116.5C 76.9402,114.891 78.1069,112.557 78,109.5C 81.0089,107.318 83.1756,104.484 84.5,101C 83.915,98.293 82.5816,96.1264 80.5,94.5C 84.8631,92.6607 87.5297,94.1607 88.5,99C 87.3704,101.407 86.537,103.907 86,106.5C 84.5589,107.26 83.0589,107.926 81.5,108.5C 80.7025,108.957 80.3691,109.624 80.5,110.5 Z"/></g>
<g><path style="opacity:1" fill="#23adff" d="M 111.5,104.5 C 111.735,103.903 112.235,103.57 113,103.5C 115.464,104.161 117.964,104.661 120.5,105C 118.075,105.293 116.242,106.459 115,108.5C 114.502,106.456 113.335,105.122 111.5,104.5 Z"/></g>
<g><path style="opacity:1" fill="#1bb0ff" d="M 125.5,104.5 C 126.627,108.908 126.627,109.908 125.5,107.5C 123.801,107.66 122.134,107.494 120.5,107C 122.653,106.901 124.319,106.067 125.5,104.5 Z"/></g>
<g><path style="opacity:1" fill="#011dfb" d="M 86.5,109.5 C 85.791,110.404 84.791,110.737 83.5,110.5C 83.7148,112.179 83.0481,113.179 81.5,113.5C 80.8902,112.609 80.5569,111.609 80.5,110.5C 82.4352,109.85 84.4352,109.517 86.5,109.5 Z"/></g>
<g><path style="opacity:1" fill="#198cff" d="M 80.5,110.5 C 80.5569,111.609 80.8902,112.609 81.5,113.5C 80.71,114.609 80.21,115.942 80,117.5C 78.3086,115.059 78.4753,112.726 80.5,110.5 Z"/></g>
</svg>
