<svg id="svg" version="1.1" xmlns="http://www.w3.org/2000/svg" xmlns:xlink="http://www.w3.org/1999/xlink" width="400" height="400" viewBox="0, 0, 400,400"><g id="svgg"><path id="path0" d="M0.000 30.800 L 0.000 61.600 200.000 61.600 L 400.000 61.600 400.000 30.800 L 400.000 0.000 200.000 0.000 L 0.000 0.000 0.000 30.800 M0.000 138.400 L 0.000 169.200 200.000 169.200 L 400.000 169.200 400.000 138.400 L 400.000 107.600 200.000 107.600 L 0.000 107.600 0.000 138.400 M0.000 246.000 L 0.000 276.800 200.000 276.800 L 400.000 276.800 400.000 246.000 L 400.000 215.200 200.000 215.200 L 0.000 215.200 0.000 246.000 M0.000 361.600 L 0.000 400.000 200.000 400.000 L 400.000 400.000 400.000 361.600 L 400.000 323.200 200.000 323.200 L 0.000 323.200 0.000 361.600 " stroke="none" fill="#fcfcfc" fill-rule="evenodd"></path><path id="path1" d="M0.000 84.600 L 0.000 107.600 200.000 107.600 L 400.000 107.600 400.000 84.600 L 400.000 61.600 200.000 61.600 L 0.000 61.600 0.000 84.600 M0.000 192.200 L 0.000 215.200 200.000 215.200 L 400.000 215.200 400.000 192.200 L 400.000 169.200 200.000 169.200 L 0.000 169.200 0.000 192.200 M0.000 300.000 L 0.000 323.200 200.000 323.200 L 400.000 323.200 400.000 300.000 L 400.000 276.800 200.000 276.800 L 0.000 276.800 0.000 300.000 " stroke="none" fill="#040404" fill-rule="evenodd"></path></g></svg>