<?xml version="1.0" encoding="UTF-8"?>
<!DOCTYPE svg PUBLIC "-//W3C//DTD SVG 1.1//EN" "http://www.w3.org/Graphics/SVG/1.1/DTD/svg11.dtd">
<svg xmlns="http://www.w3.org/2000/svg" version="1.1" width="450px" height="450px" style="shape-rendering:geometricPrecision; text-rendering:geometricPrecision; image-rendering:optimizeQuality; fill-rule:evenodd; clip-rule:evenodd" xmlns:xlink="http://www.w3.org/1999/xlink">
<g><path style="opacity:1" fill="#fefefe" d="M -0.5,-0.5 C 149.5,-0.5 299.5,-0.5 449.5,-0.5C 449.5,140.167 449.5,280.833 449.5,421.5C 420.167,421.5 390.833,421.5 361.5,421.5C 340.143,420.845 318.81,418.678 297.5,415C 285.324,412.221 273.324,408.721 261.5,404.5C 237.544,391.721 217.377,374.387 201,352.5C 190.497,338.166 180.997,323.166 172.5,307.5C 161.515,286.531 151.348,265.198 142,243.5C 122.418,195.325 103.084,146.992 84,98.5C 77.7092,84.2801 71.0426,70.2801 64,56.5C 59.0822,48.9999 54.4155,41.3333 50,33.5C 44.5733,26.0695 38.4066,19.2362 31.5,13C 26.3131,9.40639 20.6464,6.90639 14.5,5.5C 12.9704,5.63985 11.9704,6.30652 11.5,7.5C 11.5,11.1667 11.5,14.8333 11.5,18.5C 11.5,152.167 11.5,285.833 11.5,419.5C 11.5,429.5 11.5,439.5 11.5,449.5C 7.5,449.5 3.5,449.5 -0.5,449.5C -0.5,299.5 -0.5,149.5 -0.5,-0.5 Z"/></g>
<g><path style="opacity:1" fill="#fbfdfb" d="M 13.5,7.5 C 21.2419,8.26045 27.5752,11.5938 32.5,17.5C 26.1667,17.5 19.8333,17.5 13.5,17.5C 13.5,14.1667 13.5,10.8333 13.5,7.5 Z"/></g>
<g><path style="opacity:1" fill="#e1c5c4" d="M 11.5,7.5 C 12.1667,7.5 12.8333,7.5 13.5,7.5C 13.5,10.8333 13.5,14.1667 13.5,17.5C 19.8333,17.5 26.1667,17.5 32.5,17.5C 33.4916,17.3284 34.1583,17.6618 34.5,18.5C 27.5,18.5 20.5,18.5 13.5,18.5C 12.8333,18.5 12.1667,18.5 11.5,18.5C 11.5,14.8333 11.5,11.1667 11.5,7.5 Z"/></g>
<g><path style="opacity:1" fill="#ef605f" d="M 13.5,18.5 C 20.5,18.5 27.5,18.5 34.5,18.5C 35.5,18.8333 36.1667,19.5 36.5,20.5C 36.5,31.8333 36.5,43.1667 36.5,54.5C 44.1667,54.5 51.8333,54.5 59.5,54.5C 60.9063,54.9731 61.573,55.9731 61.5,57.5C 61.5,74.5 61.5,91.5 61.5,108.5C 69.5,108.5 77.5,108.5 85.5,108.5C 86.404,109.209 86.7373,110.209 86.5,111.5C 86.5,130.833 86.5,150.167 86.5,169.5C 94.1667,169.5 101.833,169.5 109.5,169.5C 111.213,170.635 111.88,172.302 111.5,174.5C 111.5,193.833 111.5,213.167 111.5,232.5C 119.5,232.5 127.5,232.5 135.5,232.5C 136.404,233.209 136.737,234.209 136.5,235.5C 136.5,252.833 136.5,270.167 136.5,287.5C 144.5,287.5 152.5,287.5 160.5,287.5C 161.11,288.391 161.443,289.391 161.5,290.5C 161.5,304.5 161.5,318.5 161.5,332.5C 169.5,332.5 177.5,332.5 185.5,332.5C 186.11,333.391 186.443,334.391 186.5,335.5C 186.5,345.5 186.5,355.5 186.5,365.5C 194.167,365.5 201.833,365.5 209.5,365.5C 210.906,365.973 211.573,366.973 211.5,368.5C 211.5,375.5 211.5,382.5 211.5,389.5C 218.833,389.5 226.167,389.5 233.5,389.5C 235.5,389.5 236.5,390.5 236.5,392.5C 236.5,396.5 236.5,400.5 236.5,404.5C 243.5,404.5 250.5,404.5 257.5,404.5C 258.833,404.5 260.167,404.5 261.5,404.5C 261.5,405.167 261.5,405.833 261.5,406.5C 261.5,408.833 261.5,411.167 261.5,413.5C 267.833,413.5 274.167,413.5 280.5,413.5C 282.621,413.325 284.621,413.659 286.5,414.5C 286.5,415.833 286.5,417.167 286.5,418.5C 291.5,418.5 296.5,418.5 301.5,418.5C 303.833,418.5 306.167,418.5 308.5,418.5C 309.806,419.467 310.473,420.801 310.5,422.5C 277.833,422.5 245.167,422.5 212.5,422.5C 211.833,418.5 211.167,418.5 210.5,422.5C 177.833,422.5 145.167,422.5 112.5,422.5C 112.719,421.325 112.386,420.325 111.5,419.5C 110.702,419.957 110.369,420.624 110.5,421.5C 78.1667,421.5 45.8333,421.5 13.5,421.5C 13.5,287.167 13.5,152.833 13.5,18.5 Z"/></g>
<g><path style="opacity:1" fill="#ab4444" d="M 11.5,18.5 C 12.1667,18.5 12.8333,18.5 13.5,18.5C 13.5,152.833 13.5,287.167 13.5,421.5C 45.8333,421.5 78.1667,421.5 110.5,421.5C 78.0043,422.498 45.3376,422.832 12.5,422.5C 12.7373,421.209 12.404,420.209 11.5,419.5C 11.5,285.833 11.5,152.167 11.5,18.5 Z"/></g>
<g><path style="opacity:1" fill="#fcfbfa" d="M 36.5,20.5 C 45.7248,30.7346 53.3915,42.068 59.5,54.5C 51.8333,54.5 44.1667,54.5 36.5,54.5C 36.5,43.1667 36.5,31.8333 36.5,20.5 Z"/></g>
<g><path style="opacity:1" fill="#fbfbf9" d="M 61.5,57.5 C 70.3388,74.0356 78.3388,91.0356 85.5,108.5C 77.5,108.5 69.5,108.5 61.5,108.5C 61.5,91.5 61.5,74.5 61.5,57.5 Z"/></g>
<g><path style="opacity:1" fill="#fcfcfa" d="M 86.5,111.5 C 94.9419,130.486 102.609,149.819 109.5,169.5C 101.833,169.5 94.1667,169.5 86.5,169.5C 86.5,150.167 86.5,130.833 86.5,111.5 Z"/></g>
<g><path style="opacity:1" fill="#fcf9f8" d="M 111.5,174.5 C 119.991,193.501 127.991,212.834 135.5,232.5C 127.5,232.5 119.5,232.5 111.5,232.5C 111.5,213.167 111.5,193.833 111.5,174.5 Z"/></g>
<g><path style="opacity:1" fill="#fbf9f7" d="M 136.5,235.5 C 143.951,253.07 151.951,270.403 160.5,287.5C 152.5,287.5 144.5,287.5 136.5,287.5C 136.5,270.167 136.5,252.833 136.5,235.5 Z"/></g>
<g><path style="opacity:1" fill="#76b974" d="M 261.5,404.5 C 260.167,404.5 258.833,404.5 257.5,404.5C 251.395,400.941 245.395,397.107 239.5,393C 238.552,392.517 237.552,392.351 236.5,392.5C 236.5,390.5 235.5,389.5 233.5,389.5C 226.22,382.555 218.886,375.555 211.5,368.5C 211.573,366.973 210.906,365.973 209.5,365.5C 201.338,355.825 193.672,345.825 186.5,335.5C 186.443,334.391 186.11,333.391 185.5,332.5C 176.951,318.726 168.951,304.726 161.5,290.5C 161.443,289.391 161.11,288.391 160.5,287.5C 151.951,270.403 143.951,253.07 136.5,235.5C 136.737,234.209 136.404,233.209 135.5,232.5C 127.991,212.834 119.991,193.501 111.5,174.5C 111.88,172.302 111.213,170.635 109.5,169.5C 102.609,149.819 94.9419,130.486 86.5,111.5C 86.7373,110.209 86.404,109.209 85.5,108.5C 78.3388,91.0356 70.3388,74.0356 61.5,57.5C 61.573,55.9731 60.9063,54.9731 59.5,54.5C 53.3915,42.068 45.7248,30.7346 36.5,20.5C 36.1667,19.5 35.5,18.8333 34.5,18.5C 34.1583,17.6618 33.4916,17.3284 32.5,17.5C 27.5752,11.5938 21.2419,8.26045 13.5,7.5C 12.8333,7.5 12.1667,7.5 11.5,7.5C 11.9704,6.30652 12.9704,5.63985 14.5,5.5C 20.6464,6.90639 26.3131,9.40639 31.5,13C 38.4066,19.2362 44.5733,26.0695 50,33.5C 54.4155,41.3333 59.0822,48.9999 64,56.5C 71.0426,70.2801 77.7092,84.2801 84,98.5C 103.084,146.992 122.418,195.325 142,243.5C 151.348,265.198 161.515,286.531 172.5,307.5C 180.997,323.166 190.497,338.166 201,352.5C 217.377,374.387 237.544,391.721 261.5,404.5 Z"/></g>
<g><path style="opacity:1" fill="#fbf8f6" d="M 161.5,290.5 C 168.951,304.726 176.951,318.726 185.5,332.5C 177.5,332.5 169.5,332.5 161.5,332.5C 161.5,318.5 161.5,304.5 161.5,290.5 Z"/></g>
<g><path style="opacity:1" fill="#fbfbf9" d="M 186.5,335.5 C 193.672,345.825 201.338,355.825 209.5,365.5C 201.833,365.5 194.167,365.5 186.5,365.5C 186.5,355.5 186.5,345.5 186.5,335.5 Z"/></g>
<g><path style="opacity:1" fill="#fafaf7" d="M 211.5,368.5 C 218.886,375.555 226.22,382.555 233.5,389.5C 226.167,389.5 218.833,389.5 211.5,389.5C 211.5,382.5 211.5,375.5 211.5,368.5 Z"/></g>
<g><path style="opacity:1" fill="#fbfaf8" d="M 236.5,392.5 C 237.552,392.351 238.552,392.517 239.5,393C 245.395,397.107 251.395,400.941 257.5,404.5C 250.5,404.5 243.5,404.5 236.5,404.5C 236.5,400.5 236.5,396.5 236.5,392.5 Z"/></g>
<g><path style="opacity:1" fill="#faf1ef" d="M 261.5,406.5 C 268.15,408.269 274.484,410.602 280.5,413.5C 274.167,413.5 267.833,413.5 261.5,413.5C 261.5,411.167 261.5,408.833 261.5,406.5 Z"/></g>
<g><path style="opacity:1" fill="#7fb978" d="M 261.5,404.5 C 273.324,408.721 285.324,412.221 297.5,415C 318.81,418.678 340.143,420.845 361.5,421.5C 353.167,421.5 344.833,421.5 336.5,421.5C 334.735,420.539 332.735,420.205 330.5,420.5C 324.5,420.5 318.5,420.5 312.5,420.5C 311.713,418.896 310.38,418.229 308.5,418.5C 306.167,418.5 303.833,418.5 301.5,418.5C 296.556,417.346 291.556,416.012 286.5,414.5C 284.621,413.659 282.621,413.325 280.5,413.5C 274.484,410.602 268.15,408.269 261.5,406.5C 261.5,405.833 261.5,405.167 261.5,404.5 Z"/></g>
<g><path style="opacity:1" fill="#f8dcd9" d="M 286.5,414.5 C 291.556,416.012 296.556,417.346 301.5,418.5C 296.5,418.5 291.5,418.5 286.5,418.5C 286.5,417.167 286.5,415.833 286.5,414.5 Z"/></g>
<g><path style="opacity:1" fill="#554747" d="M 308.5,418.5 C 310.38,418.229 311.713,418.896 312.5,420.5C 315.258,421.818 318.424,422.485 322,422.5C 325.167,422.333 328.333,422.167 331.5,422C 330.944,421.617 330.611,421.117 330.5,420.5C 332.735,420.205 334.735,420.539 336.5,421.5C 340.833,422.167 345.167,422.833 349.5,423.5C 337.167,423.5 324.833,423.5 312.5,423.5C 312.5,424.5 312.5,425.5 312.5,426.5C 311.761,426.369 311.094,426.536 310.5,427C 310.721,428.799 311.054,430.632 311.5,432.5C 310.726,433.711 309.893,433.711 309,432.5C 308.536,433.094 308.369,433.761 308.5,434.5C 307.287,433.048 307.62,431.714 309.5,430.5C 306.908,428.755 306.908,427.089 309.5,425.5C 310.043,425.44 310.376,425.107 310.5,424.5C 277.84,423.5 245.173,423.167 212.5,423.5C 212.229,425.38 212.896,426.713 214.5,427.5C 214.5,428.5 214.5,429.5 214.5,430.5C 211.894,431.743 211.894,433.076 214.5,434.5C 212.027,435.797 209.693,435.797 207.5,434.5C 208.81,432.852 210.143,431.186 211.5,429.5C 210.313,429.446 208.98,429.113 207.5,428.5C 208.193,427.482 208.859,426.482 209.5,425.5C 210.043,425.44 210.376,425.107 210.5,424.5C 177.84,423.5 145.173,423.167 112.5,423.5C 113.089,427.971 112.423,431.971 110.5,435.5C 110.669,433.088 110.003,430.921 108.5,429C 108.57,428.235 108.903,427.735 109.5,427.5C 110.434,426.432 110.768,425.099 110.5,423.5C 77.8333,423.5 45.1667,423.5 12.5,423.5C 12.2627,424.791 12.596,425.791 13.5,426.5C 14.1558,427.622 14.4892,428.955 14.5,430.5C 12.7498,436.625 12.0831,442.959 12.5,449.5C 12.1667,449.5 11.8333,449.5 11.5,449.5C 11.5,439.5 11.5,429.5 11.5,419.5C 12.404,420.209 12.7373,421.209 12.5,422.5C 45.3376,422.832 78.0043,422.498 110.5,421.5C 110.369,420.624 110.702,419.957 111.5,419.5C 112.386,420.325 112.719,421.325 112.5,422.5C 145.167,422.5 177.833,422.5 210.5,422.5C 211.167,418.5 211.833,418.5 212.5,422.5C 245.167,422.5 277.833,422.5 310.5,422.5C 310.473,420.801 309.806,419.467 308.5,418.5 Z"/></g>
<g><path style="opacity:1" fill="#9f4e47" d="M 312.5,420.5 C 318.5,420.5 324.5,420.5 330.5,420.5C 330.611,421.117 330.944,421.617 331.5,422C 328.333,422.167 325.167,422.333 322,422.5C 318.424,422.485 315.258,421.818 312.5,420.5 Z"/></g>
<g><path style="opacity:1" fill="#436637" d="M 336.5,421.5 C 344.833,421.5 353.167,421.5 361.5,421.5C 364.167,422.167 366.833,422.833 369.5,423.5C 362.833,423.5 356.167,423.5 349.5,423.5C 345.167,422.833 340.833,422.167 336.5,421.5 Z"/></g>
<g><path style="opacity:1" fill="#589f56" d="M 361.5,421.5 C 390.833,421.5 420.167,421.5 449.5,421.5C 449.5,422.167 449.5,422.833 449.5,423.5C 422.833,423.5 396.167,423.5 369.5,423.5C 366.833,422.833 364.167,422.167 361.5,421.5 Z"/></g>
<g><path style="opacity:1" fill="#d5d5d5" d="M 109.5,427.5 C 109.5,426.5 109.5,425.5 109.5,424.5C 77.1492,423.841 45.1492,424.507 13.5,426.5C 12.596,425.791 12.2627,424.791 12.5,423.5C 45.1667,423.5 77.8333,423.5 110.5,423.5C 110.768,425.099 110.434,426.432 109.5,427.5 Z"/></g>
<g><path style="opacity:1" fill="#d0d0d0" d="M 209.5,425.5 C 177.671,424.502 145.671,424.168 113.5,424.5C 113.5,428.5 113.5,432.5 113.5,436.5C 112.209,436.737 111.209,436.404 110.5,435.5C 112.423,431.971 113.089,427.971 112.5,423.5C 145.173,423.167 177.84,423.5 210.5,424.5C 210.376,425.107 210.043,425.44 209.5,425.5 Z"/></g>
<g><path style="opacity:1" fill="#d6d6d6" d="M 309.5,425.5 C 277.669,424.336 245.669,424.169 213.5,425C 214.252,425.671 214.586,426.504 214.5,427.5C 212.896,426.713 212.229,425.38 212.5,423.5C 245.173,423.167 277.84,423.5 310.5,424.5C 310.376,425.107 310.043,425.44 309.5,425.5 Z"/></g>
<g><path style="opacity:1" fill="#c8cec8" d="M 349.5,423.5 C 356.167,423.5 362.833,423.5 369.5,423.5C 396.167,423.5 422.833,423.5 449.5,423.5C 449.5,423.833 449.5,424.167 449.5,424.5C 437.322,424.172 425.322,424.505 413.5,425.5C 411.97,426.211 410.637,427.211 409.5,428.5C 409.5,427.167 409.5,425.833 409.5,424.5C 377.149,423.841 345.149,424.507 313.5,426.5C 313.167,426.5 312.833,426.5 312.5,426.5C 312.5,425.5 312.5,424.5 312.5,423.5C 324.833,423.5 337.167,423.5 349.5,423.5 Z"/></g>
<g><path style="opacity:1" fill="#fefefe" d="M 109.5,427.5 C 108.903,427.735 108.57,428.235 108.5,429C 110.003,430.921 110.669,433.088 110.5,435.5C 111.209,436.404 112.209,436.737 113.5,436.5C 113.5,432.5 113.5,428.5 113.5,424.5C 145.671,424.168 177.671,424.502 209.5,425.5C 208.859,426.482 208.193,427.482 207.5,428.5C 208.98,429.113 210.313,429.446 211.5,429.5C 210.143,431.186 208.81,432.852 207.5,434.5C 206.596,435.209 206.263,436.209 206.5,437.5C 209.5,437.5 212.5,437.5 215.5,437.5C 215.552,435.097 215.219,432.764 214.5,430.5C 214.5,429.5 214.5,428.5 214.5,427.5C 214.586,426.504 214.252,425.671 213.5,425C 245.669,424.169 277.669,424.336 309.5,425.5C 306.908,427.089 306.908,428.755 309.5,430.5C 307.62,431.714 307.287,433.048 308.5,434.5C 310.167,435.833 311.833,435.833 313.5,434.5C 314.478,434.189 315.145,433.522 315.5,432.5C 314.95,430.343 314.283,428.343 313.5,426.5C 345.149,424.507 377.149,423.841 409.5,424.5C 409.5,425.833 409.5,427.167 409.5,428.5C 408.069,429.78 407.402,431.447 407.5,433.5C 409.492,433.328 411.158,433.995 412.5,435.5C 413.086,435.291 413.586,434.957 414,434.5C 414.044,431.525 413.877,428.525 413.5,425.5C 425.322,424.505 437.322,424.172 449.5,424.5C 449.5,432.833 449.5,441.167 449.5,449.5C 303.833,449.5 158.167,449.5 12.5,449.5C 12.0831,442.959 12.7498,436.625 14.5,430.5C 14.4892,428.955 14.1558,427.622 13.5,426.5C 45.1492,424.507 77.1492,423.841 109.5,424.5C 109.5,425.5 109.5,426.5 109.5,427.5 Z"/></g>
<g><path style="opacity:1" fill="#7e7e7e" d="M 313.5,426.5 C 314.283,428.343 314.95,430.343 315.5,432.5C 315.145,433.522 314.478,434.189 313.5,434.5C 313.5,431.833 313.5,429.167 313.5,426.5 Z"/></g>
<g><path style="opacity:1" fill="#2a2a2a" d="M 312.5,426.5 C 312.833,426.5 313.167,426.5 313.5,426.5C 313.5,429.167 313.5,431.833 313.5,434.5C 311.833,435.833 310.167,435.833 308.5,434.5C 308.369,433.761 308.536,433.094 309,432.5C 309.893,433.711 310.726,433.711 311.5,432.5C 311.054,430.632 310.721,428.799 310.5,427C 311.094,426.536 311.761,426.369 312.5,426.5 Z"/></g>
<g><path style="opacity:1" fill="#373737" d="M 413.5,425.5 C 413.877,428.525 414.044,431.525 414,434.5C 413.586,434.957 413.086,435.291 412.5,435.5C 411.158,433.995 409.492,433.328 407.5,433.5C 407.402,431.447 408.069,429.78 409.5,428.5C 410.637,427.211 411.97,426.211 413.5,425.5 Z"/></g>
<g><path style="opacity:1" fill="#cccccc" d="M 214.5,430.5 C 215.219,432.764 215.552,435.097 215.5,437.5C 212.5,437.5 209.5,437.5 206.5,437.5C 206.263,436.209 206.596,435.209 207.5,434.5C 209.693,435.797 212.027,435.797 214.5,434.5C 211.894,433.076 211.894,431.743 214.5,430.5 Z"/></g>
</svg>
